<?xml version="1.0" encoding="UTF-8"?>
<svg version="1.1" xmlns="http://www.w3.org/2000/svg" viewBox="0 0 512 512" fill="currentColor">
<path d="M0 0 C1.19118942 -0.00832352 2.38237885 -0.01664703 3.60966492 -0.02522278 C6.86205045 -0.04512968 10.11428748 -0.05595273 13.36672568 -0.06104922 C15.40462382 -0.06470618 17.44249785 -0.07095318 19.48038673 -0.07805061 C26.60705254 -0.10251146 33.73364594 -0.11558909 40.86035156 -0.11914062 C47.47525496 -0.1227703 54.08969282 -0.15263302 60.70445412 -0.19454521 C66.4058131 -0.22938722 72.10701885 -0.24469147 77.80848342 -0.24538666 C81.20379797 -0.24617496 84.59863784 -0.25470396 87.99384117 -0.28338432 C91.78926853 -0.31040437 95.58343007 -0.30543967 99.37890625 -0.29296875 C100.4842572 -0.30780304 101.58960815 -0.32263733 102.72845459 -0.33792114 C114.31273408 -0.23017514 123.49081926 3.82758264 131.76293945 11.86108398 C142.53244783 23.56544552 146.67804884 37.80159353 150.8762207 52.79077148 C151.31683858 54.34321996 151.75810928 55.89548328 152.19999695 57.4475708 C153.34898373 61.48980433 154.48921563 65.53445431 155.62750244 69.57971191 C156.79551838 73.72450865 157.97199017 77.86690344 159.14770508 82.00952148 C161.44429441 90.10618182 163.73161967 98.20542059 166.01293945 106.30639648 C167.14723389 106.320979 168.28152832 106.33556152 169.45019531 106.35058594 C173.6941542 106.40894588 177.93760326 106.48617376 182.18115234 106.56884766 C184.01114574 106.6019208 185.84123682 106.63000647 187.67138672 106.65283203 C190.31560559 106.68670455 192.95894324 106.7390329 195.6027832 106.79467773 C196.40940903 106.80106766 197.21603485 106.80745758 198.04710388 106.81404114 C204.83494949 106.98626855 211.62208785 107.85577359 216.51293945 112.86889648 C219.3556751 117.48834192 219.70279838 120.92713938 219.01293945 126.30639648 C215.17615491 138.65849367 204.76625805 146.28445442 194.1887207 152.71264648 C190.78499564 154.42078895 187.69410526 155.38031704 184.01293945 156.30639648 C184.36227539 157.11463867 184.71161133 157.92288086 185.0715332 158.75561523 C185.52657227 159.82424805 185.98161133 160.89288086 186.45043945 161.99389648 C186.90290039 163.04963867 187.35536133 164.10538086 187.8215332 165.19311523 C192.08284685 176.3284168 190.77622425 188.54886565 186.01293945 199.30639648 C179.24570819 210.86458794 170.4031701 218.29523653 158.01293945 223.30639648 C157.02293945 223.30639648 156.03293945 223.30639648 155.01293945 223.30639648 C154.90981445 224.46010742 154.80668945 225.61381836 154.70043945 226.80249023 C154.12892545 231.31804616 152.784323 235.19510468 151.01293945 239.36889648 C150.70533691 240.10060059 150.39773438 240.83230469 150.08081055 241.58618164 C144.80690828 253.74159538 137.80443409 264.39441724 129.01293945 274.30639648 C128.5662793 274.81332031 128.11961914 275.32024414 127.65942383 275.8425293 C126.24426386 277.44265831 124.81863684 279.03265135 123.38793945 280.61889648 C122.92427979 281.13709961 122.46062012 281.65530273 121.98291016 282.18920898 C119.45109922 284.95658959 117.00149121 287.03051903 113.82543945 288.99389648 C112.04960347 290.73254857 111.10238006 291.76390979 110.69364929 294.24299622 C110.70837784 294.93785629 110.72310638 295.63271637 110.73828125 296.34863281 C110.74734497 297.10494995 110.75640869 297.86126709 110.76574707 298.64050293 C110.78931274 299.42356812 110.81287842 300.2066333 110.8371582 301.01342773 C110.84984741 301.80930298 110.86253662 302.60517822 110.87561035 303.4251709 C110.90869242 305.38583473 110.95913512 307.34619186 111.01293945 309.30639648 C112.45854248 309.68223877 112.45854248 309.68223877 113.93334961 310.06567383 C156.98440458 321.30008034 201.33014022 333.05516124 236.01293945 362.30639648 C236.08770508 361.59354492 236.1624707 360.88069336 236.23950195 360.14624023 C237.1633866 353.41637465 238.60379594 348.6832607 244.01293945 344.30639648 C250.97713359 341.98499844 258.67203427 343.30639648 266.01293945 343.30639648 C266.01293945 325.48639648 266.01293945 307.66639648 266.01293945 289.30639648 C257.76293945 289.30639648 249.51293945 289.30639648 241.01293945 289.30639648 C229.70424112 286.95041767 220.92245338 282.39934354 214.39196777 272.59120178 C207.87561953 261.7947687 208.42403656 250.65923097 208.48168945 238.46655273 C208.47899105 236.45161248 208.47510573 234.4366735 208.47009277 232.42173767 C208.46422361 228.2199959 208.47268339 224.01859629 208.49145508 219.81689453 C208.51434632 214.43091194 208.50104105 209.04572227 208.47716522 203.6597681 C208.46272508 199.50849911 208.46730327 195.35741895 208.47767639 191.20614433 C208.48034328 189.21940453 208.47707525 187.23264756 208.46775818 185.24592781 C208.45761068 182.47663823 208.47306349 179.70864588 208.49536133 176.93945312 C208.4872644 176.12019852 208.47916748 175.30094391 208.4708252 174.4568634 C208.52509973 170.82250474 208.68501838 168.73692537 210.92028809 165.80223083 C213.17327519 164.19178795 214.27158035 163.73854227 217.01293945 163.74389648 C218.00293945 163.71102539 218.00293945 163.71102539 219.01293945 163.67749023 C222.23114187 164.68946404 223.22231749 166.49321143 225.01293945 169.30639648 C225.38841404 172.27336528 225.53764677 174.86408515 225.49536133 177.82519531 C225.49927383 178.67138931 225.50318634 179.51758331 225.50721741 180.38941956 C225.51318361 182.2221941 225.51003826 184.05501611 225.49879456 185.88776588 C225.48151165 188.79331907 225.48905263 191.69787903 225.50305176 194.60343933 C225.53268314 201.82070174 225.51953177 209.03777393 225.50787354 216.25506592 C225.49965438 222.35356068 225.5076767 228.45162133 225.53700256 234.55005455 C225.54407338 237.4040754 225.52744622 240.25732255 225.5098877 243.11128235 C225.51559886 244.87399708 225.52241776 246.63670869 225.53051758 248.39941406 C225.51920303 249.18566162 225.50788849 249.97190918 225.49623108 250.78198242 C225.56935333 257.47377807 227.56075517 262.78609597 232.26293945 267.61889648 C239.71531907 272.19194761 246.44364618 272.80620858 255.01293945 272.99389648 C256.07383789 273.02805664 257.13473633 273.0622168 258.2277832 273.09741211 C260.82272947 273.17923474 263.41736582 273.24859643 266.01293945 273.30639648 C266.00405701 272.01457962 265.99517456 270.72276276 265.98602295 269.39179993 C265.90496878 257.22315419 265.8449891 245.05456316 265.80569077 232.88570881 C265.78480794 226.62942067 265.75647697 220.3733503 265.71118164 214.1171875 C265.66774964 208.08067367 265.64380759 202.04436942 265.63343048 196.00771141 C265.62603443 193.70358162 265.61159186 191.39946342 265.59001923 189.09542274 C265.56102124 185.8703283 265.55698205 182.64610208 265.55883789 179.42089844 C265.53726624 177.9891478 265.53726624 177.9891478 265.51525879 176.5284729 C265.54195749 172.24619224 265.62859709 169.93092355 267.9163208 166.21354675 C270.17814451 164.15612077 271.00584465 163.64405154 274.01293945 163.74389648 C274.67293945 163.74260742 275.33293945 163.74131836 276.01293945 163.73999023 C279.09770983 164.61360685 280.09947336 165.69724726 282.01293945 168.30639648 C282.60660403 171.66670831 282.51764143 174.99517605 282.46704102 178.39916992 C282.46762512 179.42387894 282.46820923 180.44858795 282.46881104 181.50434875 C282.46602401 184.89183408 282.4349017 188.27843984 282.40356445 191.66577148 C282.39610429 194.01417561 282.3904103 196.36258596 282.38641357 198.71099854 C282.37113969 204.89252911 282.33184221 211.07368385 282.28759766 217.25506592 C282.24668311 223.56248897 282.22841068 229.86997274 282.20825195 236.17749023 C282.16535011 248.55395746 282.09707712 260.93014572 282.01293945 273.30639648 C285.68046374 273.22472548 289.34642038 273.11195573 293.01293945 272.99389648 C294.04290039 272.97133789 295.07286133 272.9487793 296.1340332 272.92553711 C305.32266939 272.60364221 312.36109299 270.95824295 319.01293945 264.30639648 C322.84024188 257.97155108 323.16097367 252.14979293 323.1706543 244.8918457 C323.17573502 244.05712738 323.18081573 243.22240906 323.18605042 242.36239624 C323.19672391 240.55580558 323.20535585 238.74920196 323.21216965 236.94259262 C323.2239853 234.08487843 323.243442 231.22731354 323.26528931 228.36965942 C323.32683772 220.24689669 323.38105149 212.12415261 323.41430664 204.0012207 C323.43521055 199.02866438 323.47047025 194.05638603 323.51506424 189.08398819 C323.52924894 187.18856188 323.53795223 185.29308646 323.54111862 183.39760971 C323.5460085 180.75216119 323.56911305 178.10745643 323.59643555 175.4621582 C323.59342941 174.67663574 323.59042328 173.89111328 323.58732605 173.08178711 C323.66868201 167.79752723 323.66868201 167.79752723 325.40420532 165.32156372 C327.53338666 163.97797618 329.00646416 163.90633173 331.51293945 163.93139648 C332.28637695 163.92366211 333.05981445 163.91592773 333.85668945 163.90795898 C336.54801721 164.40526955 337.39327974 165.12380627 339.01293945 167.30639648 C340.36353916 171.13817861 340.16067543 175.1030366 340.15820312 179.11328125 C340.16324104 180.28734276 340.16324104 180.28734276 340.16838074 181.48512268 C340.17787759 184.07269888 340.17983369 186.66021019 340.1809082 189.24780273 C340.18412334 191.0541944 340.18748761 192.86058581 340.19099426 194.66697693 C340.19698356 198.45735273 340.19883453 202.24770574 340.19824219 206.03808594 C340.19814096 210.87071264 340.21175299 215.70319111 340.2290144 220.53578281 C340.2401951 224.27038733 340.24215948 228.00495681 340.24163246 231.73957634 C340.24280499 233.51957647 340.24718548 235.29957772 340.25496483 237.07956123 C340.31523066 252.30267501 340.28432489 266.79658371 329.32543945 278.61889648 C315.83573312 291.19404646 300.15177397 289.30639648 282.01293945 289.30639648 C282.01293945 307.12639648 282.01293945 324.94639648 282.01293945 343.30639648 C288.28293945 343.30639648 294.55293945 343.30639648 301.01293945 343.30639648 C307.90182834 346.75084093 307.90182834 346.75084093 310.01293945 350.30639648 C311.09477056 353.5518898 311.14412002 355.9130259 311.15338135 359.32809448 C311.15909149 360.58711578 311.16480164 361.84613708 311.17068481 363.14331055 C311.17193015 364.54125967 311.17305525 365.9392089 311.17407227 367.3371582 C311.17870085 368.80730311 311.18372556 370.27744681 311.18911743 371.74758911 C311.20223865 375.74348706 311.20868572 379.7393682 311.21312809 383.73528433 C311.21605896 386.23140406 311.22016377 388.7275192 311.22463226 391.22363663 C311.23830579 399.0324501 311.24797344 406.84125308 311.25183415 414.6500777 C311.25631622 423.66622441 311.27387157 432.68221963 311.30283475 441.69832027 C311.32444303 448.66655726 311.33453796 455.6347516 311.33587527 462.60302174 C311.33692382 466.76542491 311.34284215 470.92768564 311.36069489 475.09005356 C311.37716112 479.00528543 311.37933823 482.92026756 311.37055588 486.8355217 C311.36978475 488.27183195 311.37413824 489.70815556 311.38401413 491.14443207 C311.39671332 493.10649105 311.38907249 495.06865015 311.38043213 497.0307312 C311.38189869 498.12837736 311.38336525 499.22602352 311.38487625 500.35693169 C310.81851101 504.84821714 309.05418108 507.26879038 305.88945025 510.42247146 C302.27671278 512.78857644 299.37505458 512.86244841 295.19923496 512.80696774 C294.02323454 512.81523899 294.02323454 512.81523899 292.82347652 512.82367733 C290.1862451 512.83731447 287.54994937 512.82235298 284.91273499 512.80760193 C283.00703387 512.81149329 281.10133565 512.81713241 279.19564432 512.82437283 C273.95089486 512.83916921 268.70644435 512.82892136 263.46170437 512.81463611 C257.80857604 512.80355389 252.15549059 512.81545983 246.50236511 512.82447815 C235.42444932 512.83843166 224.3466473 512.83083871 213.26873691 512.81580257 C200.37475697 512.79896587 187.48080556 512.8021498 174.58681803 512.80589665 C150.88835619 512.81195699 127.18996518 512.79615793 103.49152054 512.77070901 C81.8538657 512.74759619 60.21627768 512.7422045 38.57861328 512.75244141 C33.0386178 512.75504338 27.49862232 512.75762838 21.95862675 512.76003933 C21.27660645 512.76033678 20.59458615 512.76063422 19.89189858 512.76094069 C1.81704381 512.76855455 -16.25780302 512.76208517 -34.33265597 512.75134331 C-36.92323815 512.74981743 -39.51382035 512.74829708 -42.10440254 512.7467823 C-44.01645214 512.74564558 -44.01645214 512.74564558 -45.967129 512.7444859 C-54.95975449 512.73973876 -63.9523649 512.74159757 -72.94499016 512.7458477 C-83.90137572 512.75076947 -94.85769211 512.74481194 -105.81406181 512.72495341 C-111.406634 512.71506733 -116.99910077 512.70999049 -122.59167862 512.71784592 C-127.70829279 512.72488585 -132.82469394 512.7181376 -137.94127996 512.70024229 C-139.79519132 512.69618681 -141.64912199 512.697216 -143.50302624 512.70376115 C-146.01811223 512.7118826 -148.53247543 512.70163438 -151.04751492 512.68671322 C-152.13353933 512.6968197 -152.13353933 512.6968197 -153.24150363 512.70713034 C-157.88370496 512.65367135 -161.04369612 511.74881174 -164.98706055 509.30639648 C-172.69718377 500.55436471 -169.79453959 487.09763184 -169.1315918 476.27124023 C-169.02740978 474.50640723 -168.92346616 472.74156015 -168.81974792 470.97669983 C-168.60063848 467.2839177 -168.37523663 463.59158042 -168.14599609 459.89941406 C-167.85599933 455.21292073 -167.58680838 450.52549404 -167.3231554 445.8374548 C-167.11479748 442.19121188 -166.89244941 438.54591428 -166.66641808 434.90072823 C-166.56154848 433.17539658 -166.46142369 431.44976862 -166.36652565 429.72385979 C-165.58405816 415.65959243 -163.98792765 401.47268478 -157.17456055 388.86889648 C-156.82981689 388.20696289 -156.48507324 387.5450293 -156.12988281 386.86303711 C-153.28355844 381.54241425 -149.96776599 376.84531579 -145.98706055 372.30639648 C-145.45725586 371.64639648 -144.92745117 370.98639648 -144.3815918 370.30639648 C-113.69129388 332.98232871 -56.65329148 320.50241743 -11.98706055 309.30639648 C-10.73868016 298.78709884 -10.73868016 298.78709884 -13.3815918 288.93920898 C-15.48966127 287.21325394 -17.70059084 285.78736423 -19.98706055 284.30639648 C-37.65196297 268.5051019 -49.64525842 248.03740489 -55.98706055 225.30639648 C-55.98706055 224.64639648 -55.98706055 223.98639648 -55.98706055 223.30639648 C-56.53233398 223.15944336 -57.07760742 223.01249023 -57.6394043 222.86108398 C-69.9128602 219.21051761 -80.15922158 210.95155381 -86.42456055 199.74389648 C-92.28452894 186.86178721 -91.86866242 174.06744453 -87.11206055 160.88061523 C-86.46520908 159.32879369 -85.7389338 157.81014298 -84.98706055 156.30639648 C-85.75018555 156.10014648 -86.51331055 155.89389648 -87.29956055 155.68139648 C-99.99369215 150.94799148 -111.42567287 142.87791312 -117.95581055 130.74780273 C-119.93551466 126.06100322 -120.7635107 122.03111726 -119.3503418 117.07202148 C-117.75805947 113.39028851 -116.44204632 111.60649348 -113.04956055 109.36889648 C-107.26504257 107.3620229 -102.02866531 107.17092523 -95.9675293 107.20874023 C-95.10895828 107.21015518 -94.25038727 107.21157013 -93.36579895 107.21302795 C-90.63535006 107.21860591 -87.90498447 107.23115435 -85.17456055 107.24389648 C-83.31844194 107.24891433 -81.46232205 107.25347674 -79.60620117 107.25756836 C-75.06645574 107.26856812 -70.52677225 107.28581756 -65.98706055 107.30639648 C-65.78822266 106.40477783 -65.58938477 105.50315918 -65.38452148 104.57421875 C-62.45578389 91.58986117 -58.91212119 78.78247709 -55.28881836 65.97705078 C-54.58770295 63.48848167 -53.89368579 60.99790179 -53.20678711 58.50537109 C-41.52264147 16.11553576 -41.52264147 16.11553576 -21.7956543 3.71655273 C-14.57676625 0.09204844 -7.95207786 0.00473838 0 0 Z " fill="#020101" transform="translate(170.987060546875,-0.306396484375)"/>
<path d="M0 0 C0.27972656 0.82242187 0.55945313 1.64484375 0.84765625 2.4921875 C6.84004519 19.17838949 17.16796083 31.35802255 33.17382812 39.17041016 C48.72106707 46.23317994 64.18367945 45.14832206 80 40 C94.25505163 34.5648989 105.01148653 23.85112929 111.375 10.125 C112.25474293 8.08537254 113.13035116 6.04395173 114 4 C114.65434196 2.66057519 115.31548085 1.32425668 116 0 C118.3760271 0.45344029 120.75071581 0.91259259 123.125 1.375 C123.79015625 1.50132812 124.4553125 1.62765625 125.140625 1.7578125 C129.27822527 2.56910667 132.96199357 3.65399786 137 5 C137 31.07 137 57.14 137 84 C105.25 84.3125 105.25 84.3125 95.23535156 84.38793945 C92.62042804 84.42021954 90.00551767 84.45359184 87.390625 84.48828125 C86.37376617 84.4926545 86.37376617 84.4926545 85.33636475 84.49711609 C83.33382949 84.50686764 81.33142462 84.5368879 79.32910156 84.56762695 C78.20103088 84.57873001 77.07296021 84.58983307 75.91070557 84.60127258 C72.69848949 85.04130287 71.29992969 85.75213437 69 88 C68.33740346 90.83568858 68.71832307 93.04239226 69 96 C72.13799169 99.13799169 75.27104325 99.12413158 79.56765747 99.13803101 C80.47899445 99.14348434 81.39033142 99.14893768 82.32928467 99.15455627 C83.32164124 99.1555986 84.3139978 99.15664093 85.33642578 99.15771484 C86.91256149 99.16533592 86.91256149 99.16533592 88.52053833 99.17311096 C90.80133354 99.18380843 93.08213921 99.19243105 95.36294937 99.19923019 C98.96800499 99.21101166 102.57294041 99.23046016 106.177948 99.25234985 C116.42734821 99.31400978 126.6767346 99.36812181 136.92626953 99.40136719 C143.19440984 99.42224727 149.46232865 99.45749052 155.73034286 99.50212479 C158.12341592 99.51633184 160.51652813 99.52501776 162.90964127 99.52817917 C166.24745332 99.53305755 169.58467091 99.55613375 172.92236328 99.58349609 C173.91876831 99.58048996 174.91517334 99.57748383 175.94177246 99.5743866 C177.30031845 99.59102608 177.30031845 99.59102608 178.68630981 99.60800171 C179.47570009 99.61131186 180.26509037 99.614622 181.07840157 99.61803246 C181.71252905 99.74408175 182.34665653 99.87013103 183 100 C196.31793983 119.97690975 185 147.99074253 185 172 C101.18 172 17.36 172 -69 172 C-69 148.9 -69 125.8 -69 102 C-65.62508535 98.62508535 -65.62508535 98.62508535 -61.59056091 98.61473083 C-60.68901276 98.60508301 -59.7874646 98.59543518 -58.8585968 98.585495 C-57.37869514 98.59236076 -57.37869514 98.59236076 -55.86889648 98.59936523 C-54.82803894 98.59238617 -53.7871814 98.5854071 -52.71478271 98.57821655 C-49.26680483 98.55818502 -45.81912474 98.55873982 -42.37109375 98.55859375 C-39.98119797 98.5468296 -37.59130957 98.53346777 -35.20143127 98.51856995 C-28.90410936 98.48232044 -22.60685278 98.46216187 -16.30944824 98.44702148 C-6.22501031 98.4222229 3.85928323 98.38271534 13.94358635 98.32512093 C17.47459614 98.30872981 21.00547104 98.30500854 24.53651428 98.30210876 C26.69044227 98.29233708 28.84436811 98.28207456 30.99829102 98.27124023 C32.48122902 98.27506966 32.48122902 98.27506966 33.99412537 98.27897644 C34.8928537 98.27214844 35.79158203 98.26532043 36.71754456 98.25828552 C37.50085931 98.25665122 38.28417406 98.25501692 39.09122562 98.25333309 C41.24038297 98.1649027 41.24038297 98.1649027 43 96 C43.47213673 91.93904042 43.47213673 91.93904042 43 88 C39.7801304 84.885838 37.34145401 84.61303155 32.94628906 84.56762695 C31.70830566 84.54768677 30.47032227 84.52774658 29.19482422 84.50720215 C27.89818848 84.50095825 26.60155273 84.49471436 25.265625 84.48828125 C23.47294189 84.46332581 23.47294189 84.46332581 21.64404297 84.43786621 C17.17954101 84.38003075 12.71473696 84.34780565 8.25 84.3125 C-1.7325 84.209375 -11.715 84.10625 -22 84 C-22 57.93 -22 31.86 -22 5 C-4 0 -4 0 0 0 Z " fill="#CF8F7F" transform="translate(163,325)"/>
<path d="M0 0 C0.07671463 6.47371743 0.12887575 12.94731557 0.16479492 19.42138672 C0.1797854 21.61902243 0.20018466 23.81662871 0.22631836 26.01416016 C0.49660155 49.34330944 0.49660155 49.34330944 -3 59 C-3.22453857 59.6904541 -3.44907715 60.3809082 -3.68041992 61.09228516 C-8.24979563 74.60460666 -15.81236324 86.16904609 -25 97 C-25.55171875 97.68578125 -26.1034375 98.3715625 -26.671875 99.078125 C-31.45702676 104.86587998 -37.06136587 109.43436485 -43 114 C-43.78117188 114.6084375 -44.56234375 115.216875 -45.3671875 115.84375 C-62.65494881 128.64949912 -82.38809209 135.76735534 -104 133 C-122.1266873 129.11061905 -137.55980433 118.2902324 -151 106 C-151.79921875 105.28328125 -152.5984375 104.5665625 -153.421875 103.828125 C-167.24194114 90.79217609 -183.12628526 68.28627049 -184.12025452 48.62078857 C-184.11803391 47.74142639 -184.11581329 46.86206421 -184.11352539 45.95605469 C-184.11344986 44.95531921 -184.11337433 43.95458374 -184.11329651 42.92352295 C-184.10813522 41.85047913 -184.10297394 40.7774353 -184.09765625 39.671875 C-184.0962413 38.56773254 -184.09482635 37.46359009 -184.09336853 36.32598877 C-184.08777258 32.80063158 -184.07522079 29.27533798 -184.0625 25.75 C-184.05748448 23.35937592 -184.05292166 20.96875084 -184.04882812 18.578125 C-184.03780447 12.71872832 -184.02107033 6.8593687 -184 1 C-176.14318929 1.48944278 -168.31834583 2.0063781 -160.5 2.9375 C-110.28868527 8.32980341 -57.25690124 9.36039778 -7.359375 0.55078125 C-4 0 -4 0 0 0 Z " fill="#FDECE4" transform="translate(313,167)"/>
<path d="M0 0 C0.27972656 0.82242187 0.55945313 1.64484375 0.84765625 2.4921875 C6.84004519 19.17838949 17.16796083 31.35802255 33.17382812 39.17041016 C48.72106707 46.23317994 64.18367945 45.14832206 80 40 C94.25505163 34.5648989 105.01148653 23.85112929 111.375 10.125 C112.25474293 8.08537254 113.13035116 6.04395173 114 4 C114.65434196 2.66057519 115.31548085 1.32425668 116 0 C118.3760271 0.45344029 120.75071581 0.91259259 123.125 1.375 C123.79015625 1.50132812 124.4553125 1.62765625 125.140625 1.7578125 C129.27822527 2.56910667 132.96199357 3.65399786 137 5 C137 31.07 137 57.14 137 84 C105.3125 84.1875 105.3125 84.1875 95.32543945 84.20776367 C92.71303283 84.23420743 90.10064384 84.26248405 87.48828125 84.29296875 C86.81298874 84.2906575 86.13769623 84.28834625 85.44194031 84.28596497 C83.4420924 84.28104087 81.44225094 84.31024783 79.44262695 84.34057617 C78.31677689 84.34723801 77.19092682 84.35389984 76.03096008 84.36076355 C72.06395765 85.19741348 70.56192932 86.93519429 68 90 C67.67 90.66 67.34 91.32 67 92 C63.41728224 92.1743959 59.83565398 92.28087658 56.25 92.375 C55.23421875 92.42527344 54.2184375 92.47554688 53.171875 92.52734375 C50.32875243 92.58345801 47.78678097 92.57401754 45 92 C42.421875 89.0390625 42.421875 89.0390625 41 86 C38.31102533 84.65551267 36.18408351 84.83804236 33.17333984 84.79467773 C31.93511475 84.77449585 30.69688965 84.75431396 29.42114258 84.73352051 C28.1142749 84.71704468 26.80740723 84.70056885 25.4609375 84.68359375 C23.66523315 84.65561707 23.66523315 84.65561707 21.83325195 84.6270752 C17.3472454 84.55860711 12.86111341 84.49856739 8.375 84.4375 C-6.660625 84.2209375 -6.660625 84.2209375 -22 84 C-22 57.93 -22 31.86 -22 5 C-4 0 -4 0 0 0 Z " fill="#9CC5FA" transform="translate(163,325)"/>
<path d="M0 0 C100.98 0 201.96 0 306 0 C294.73330718 16.90003923 274.33158147 23.38218088 255.10546875 27.26171875 C250.58741998 28.10852416 246.05665655 28.85847419 241.51660156 29.57666016 C238.95605918 30.00739168 236.42100179 30.51478536 233.87890625 31.04296875 C226.90342443 32.46176854 219.88375999 33.09608321 212.80126953 33.74121094 C210.94463951 33.91273158 209.08879278 34.09297048 207.23388672 34.28222656 C190.09702194 36.00672771 173.02220922 36.18842031 155.8125 36.1875 C154.72341339 36.18840637 153.63432678 36.18931274 152.51223755 36.19024658 C130.53059595 36.18817895 108.59662145 35.76622398 86.75 33.1875 C85.98727783 33.09974304 85.22455566 33.01198608 84.4387207 32.92156982 C19.1334785 25.37474167 19.1334785 25.37474167 1.26953125 3.921875 C0 2 0 2 0 0 Z " fill="#D7A494" transform="translate(68,123)"/>
<path d="M0 0 C0.20919818 8.07571381 0.36877069 16.15028301 0.46630955 24.2280426 C0.51314249 27.97966685 0.57657506 31.72942838 0.67895508 35.47998047 C0.77727212 39.10467596 0.83066203 42.72758904 0.85389519 46.35351562 C0.87043396 47.73156796 0.90273497 49.10953036 0.95157051 50.48681641 C1.32161413 61.36273877 1.32161413 61.36273877 -1.99319458 65.46923828 C-4.42993164 67.53515625 -4.42993164 67.53515625 -6.86683655 69.17602539 C-10.51556901 72.29589666 -10.90454284 75.81569313 -11.2784729 80.45492554 C-11.29179657 81.72067413 -11.30512024 82.98642273 -11.31884766 84.29052734 C-11.33391609 85.3452272 -11.33391609 85.3452272 -11.34928894 86.42123413 C-11.37997493 88.72612757 -11.39711497 91.03090564 -11.4140625 93.3359375 C-11.43278593 94.94162987 -11.45236021 96.54731252 -11.4727478 98.15298462 C-11.52395101 102.3647487 -11.56363969 106.57654464 -11.60089111 110.78845215 C-11.64806655 115.84971957 -11.70961353 120.91083037 -11.76873779 125.9719696 C-11.85680602 133.6479161 -11.92667313 141.32383478 -12 149 C-32.46 149 -52.92 149 -74 149 C-72.83569375 118.72803742 -72.83569375 118.72803742 -72.31640625 108.96484375 C-72.25597641 107.82439102 -72.19554657 106.68393829 -72.13328552 105.50892639 C-72.00760323 103.15977724 -71.8807543 100.81069018 -71.75268555 98.46166992 C-71.6242625 96.08196937 -71.4993482 93.70207724 -71.37768555 91.32202148 C-71.19795559 87.80669405 -71.00832619 84.29202428 -70.81640625 80.77734375 C-70.76424454 79.72417465 -70.71208282 78.67100555 -70.65834045 77.58592224 C-69.59506264 58.89303168 -62.81865594 41.05840626 -49 28 C-36.0269307 16.64332991 -21.44926354 8.47304545 -6 1 C-4 0 -4 0 0 0 Z " fill="#9CC4F9" transform="translate(91,348)"/>
<path d="M0 0 C0.97412842 -0.00860046 1.94825684 -0.01720093 2.9519043 -0.02606201 C4.01944443 -0.03032196 5.08698456 -0.03458191 6.18687439 -0.03897095 C7.3124173 -0.04714844 8.43796021 -0.05532593 9.59761047 -0.06375122 C13.3317054 -0.08861227 17.06576222 -0.10512533 20.7999115 -0.11953735 C22.7132771 -0.12752287 22.7132771 -0.12752287 24.66529655 -0.13566971 C30.02944051 -0.15690295 35.39357115 -0.17603111 40.75774479 -0.1872921 C48.42695937 -0.20350096 56.09566488 -0.2366026 63.7646876 -0.29369295 C69.81898093 -0.33721306 75.87304434 -0.35305255 81.92750359 -0.35942459 C84.49544836 -0.36613076 87.06338592 -0.38133608 89.63122749 -0.4053154 C93.23349941 -0.43702861 96.8344988 -0.43699322 100.43687439 -0.42959595 C101.4902449 -0.44600128 102.54361542 -0.46240662 103.62890625 -0.47930908 C111.97615142 -0.40944421 118.3165468 1.94938181 124.8155365 7.22421265 C131.73736963 15.29712668 135.0395421 23.9712436 138.07725525 34.02890015 C138.29663757 34.75464233 138.5160199 35.48038452 138.74205017 36.2281189 C139.82319836 39.99227794 140.36369356 43.25446753 140.26475525 47.15390015 C139.40920044 47.15754578 138.55364563 47.16119141 137.67216492 47.16494751 C129.60873152 47.20281657 121.54570304 47.25965665 113.48255539 47.33780289 C109.33718534 47.37730983 105.19202873 47.40948229 101.04649353 47.42489624 C97.04565402 47.440042 93.04540116 47.47444948 89.04482269 47.52220917 C87.51866505 47.53704465 85.99242366 47.54494241 84.46619415 47.545784 C82.32777389 47.54814909 80.19098099 47.57518692 78.05284119 47.60800171 C76.22749847 47.62132538 76.22749847 47.62132538 74.36528015 47.63491821 C70.66736136 48.25389503 69.50830445 49.20487965 67.26475525 52.15390015 C66.93475525 53.14390015 66.60475525 54.13390015 66.26475525 55.15390015 C63.18214069 55.32853984 60.10079692 55.43484082 57.01475525 55.52890015 C56.14205994 55.57917358 55.26936462 55.62944702 54.370224 55.6812439 C51.86768526 55.73855394 49.70441165 55.72360635 47.26475525 55.15390015 C44.78038025 52.19296265 44.78038025 52.19296265 43.26475525 49.15390015 C40.28785767 47.66545136 37.56611704 47.9879841 34.24473572 47.94857788 C33.52267944 47.93867828 32.80062317 47.92877869 32.0566864 47.9185791 C29.66513877 47.88693984 27.27357126 47.86219716 24.88194275 47.8374939 C23.22569761 47.81692646 21.56945774 47.79593004 19.91322327 47.77452087 C15.55013801 47.71927847 11.18700521 47.66987878 6.82383728 47.62167358 C2.37311055 47.57147437 -2.07754698 47.51578007 -6.5282135 47.46054077 C-15.26383212 47.35293268 -23.99950854 47.25149362 -32.73524475 47.15390015 C-32.42683283 45.57356518 -32.11627111 43.99364968 -31.80482483 42.41390991 C-31.63211563 41.53404922 -31.45940643 40.65418854 -31.28146362 39.74766541 C-28.67338196 27.36297505 -24.45757006 12.47715759 -13.7469635 4.7124939 C-9.14125583 1.75709464 -5.55590081 0.0365496 0 0 Z " fill="#D7A494" transform="translate(166.73524475097656,14.846099853515625)"/>
<path d="M0 0 C6.39397394 2.05495744 12.25596339 4.40488519 18.1875 7.5625 C19.42197876 8.21786743 19.42197876 8.21786743 20.68139648 8.88647461 C32.1713469 15.11852016 42.77105099 22.69527965 52 32 C52.57275697 32.52710823 53.14551394 33.05421646 53.73562717 33.59729767 C58.34646243 38.21147677 59.80410582 41.47114807 59.87094116 47.97610474 C59.84577423 48.97592377 59.8206073 49.9757428 59.79467773 51.00585938 C59.79569992 52.07992035 59.79672211 53.15398132 59.79777527 54.2605896 C59.7929219 57.7893381 59.73858206 61.31545698 59.68359375 64.84375 C59.67052968 67.29852892 59.66056934 69.75332615 59.65357971 72.20812988 C59.62691863 78.65298305 59.55821002 85.09672286 59.48065186 91.5411377 C59.40890231 98.1236261 59.37704301 104.70629533 59.34179688 111.2890625 C59.26683919 124.19327492 59.14375983 137.09637047 59 150 C43.82 150 28.64 150 13 150 C12.97421875 144.8953125 12.9484375 139.790625 12.921875 134.53125 C12.89669161 131.28640896 12.8703474 128.04165975 12.83984375 124.796875 C12.79159688 119.65299193 12.74751929 114.50932159 12.72900391 109.36523438 C12.71379673 105.21526102 12.67928009 101.06584631 12.63169098 96.91612244 C12.61691883 95.33744681 12.60896138 93.75869141 12.60811615 92.1799469 C12.68377722 80.50505708 12.68377722 80.50505708 8 70 C5.56391207 67.61611084 5.56391207 67.61611084 3 66 C2.01 65.34 1.02 64.68 0 64 C-0.36076355 61.32980347 -0.36076355 61.32980347 -0.34057617 57.89794922 C-0.34034958 56.61677216 -0.34012299 55.33559509 -0.33988953 54.01559448 C-0.32456841 52.6119553 -0.3089204 51.20831966 -0.29296875 49.8046875 C-0.28737438 48.37265465 -0.28310353 46.94061607 -0.28010559 45.50857544 C-0.26864413 41.73712344 -0.23916624 37.96601735 -0.20599365 34.19470215 C-0.1753205 30.34729696 -0.16160618 26.49983594 -0.14648438 22.65234375 C-0.11429738 15.1014047 -0.06308584 7.55075079 0 0 Z " fill="#7FB2F9" transform="translate(350,347)"/>
<path d="M0 0 C0.495 0.99 0.495 0.99 1 2 C1.55461914 1.9685791 2.10923828 1.9371582 2.68066406 1.90478516 C5.20335792 1.7797583 7.72540122 1.70194713 10.25 1.625 C11.12269531 1.57472656 11.99539062 1.52445312 12.89453125 1.47265625 C14.16103516 1.44365234 14.16103516 1.44365234 15.453125 1.4140625 C16.22817383 1.3826416 17.00322266 1.3512207 17.80175781 1.31884766 C20 2 20 2 21.67871094 4.9942627 C23.73068093 8.30950366 23.73068093 8.30950366 27.32830811 8.75949097 C28.66471092 8.79447168 30.00221815 8.79672924 31.33886719 8.77294922 C32.43702003 8.78889381 32.43702003 8.78889381 33.55735779 8.80516052 C35.97122974 8.83321061 38.3829147 8.81915494 40.796875 8.8046875 C42.47269602 8.81593756 44.14850128 8.82981818 45.82427979 8.84622192 C50.23031612 8.88228753 54.63565897 8.88263011 59.04180908 8.87554932 C63.53971799 8.87463698 68.03736619 8.90748665 72.53515625 8.9375 C81.35684345 8.99138791 90.17816641 9.00754101 99 9 C99.47947856 10.24836889 99.95603117 11.49786178 100.43139648 12.74780273 C100.69709946 13.44348862 100.96280243 14.1391745 101.23655701 14.85594177 C102.42709257 18.19944954 103.24908921 21.61136202 104.0625 25.0625 C104.38553645 26.40783652 104.70974676 27.75289175 105.03515625 29.09765625 C105.1731665 29.68039307 105.31117676 30.26312988 105.45336914 30.86352539 C106.23703691 33.92644485 107.13144619 36.96006167 108 40 C42 40 -24 40 -92 40 C-88.54898649 23.89527027 -88.54898649 23.89527027 -86.3125 16.625 C-86.08755859 15.87734375 -85.86261719 15.1296875 -85.63085938 14.359375 C-85.09218078 12.57142052 -84.54687918 10.78546325 -84 9 C-82.50662361 8.9845388 -82.50662361 8.9845388 -80.983078 8.96876526 C-71.60976707 8.87109352 -62.23652344 8.76836533 -52.86332226 8.66066074 C-48.04424012 8.60544937 -43.2251519 8.55203217 -38.40600586 8.50268555 C-33.75701379 8.45501573 -29.10809588 8.40267187 -24.45919228 8.34705925 C-22.68376825 8.32664758 -20.9083239 8.30793253 -19.132864 8.29092598 C-16.64994318 8.26685573 -14.16716251 8.2368047 -11.68432617 8.20532227 C-10.94705292 8.1995668 -10.20977966 8.19381134 -9.45016479 8.18788147 C-6.36889166 8.14334586 -3.94611089 7.98203696 -1 7 C-0.67 4.69 -0.34 2.38 0 0 Z " fill="#355D7C" transform="translate(213,68)"/>
<path d="M0 0 C0.07671463 6.47371743 0.12887575 12.94731557 0.16479492 19.42138672 C0.1797854 21.61902243 0.20018466 23.81662871 0.22631836 26.01416016 C0.49660155 49.34330944 0.49660155 49.34330944 -3 59 C-3.22453857 59.6904541 -3.44907715 60.3809082 -3.68041992 61.09228516 C-8.24979563 74.60460666 -15.81236324 86.16904609 -25 97 C-25.55171875 97.68578125 -26.1034375 98.3715625 -26.671875 99.078125 C-31.45702676 104.86587998 -37.06136587 109.43436485 -43 114 C-43.78117188 114.6084375 -44.56234375 115.216875 -45.3671875 115.84375 C-62.59037311 128.60166527 -82.44832965 135.88422458 -104 133 C-112.64757606 131.00088658 -121.31671432 127.98187154 -128 122 C-127.42145264 122.01571045 -126.84290527 122.0314209 -126.24682617 122.04760742 C-110.84719132 122.55332498 -110.84719132 122.55332498 -96 119 C-94.9584375 118.63648438 -93.916875 118.27296875 -92.84375 117.8984375 C-63.04987417 107.10859929 -38.82076417 83.32357256 -25 55 C-23.04191041 50.43547032 -21.4687361 45.74208206 -20 41 C-19.45859375 39.40285156 -19.45859375 39.40285156 -18.90625 37.7734375 C-17.72590293 32.85871651 -17.54027739 28.10001722 -17.375 23.0625 C-17.31699219 21.6074707 -17.31699219 21.6074707 -17.2578125 20.12304688 C-17.16424924 17.74887924 -17.07850792 15.37470508 -17 13 C-18.28648437 13.12117187 -19.57296875 13.24234375 -20.8984375 13.3671875 C-25.86796942 13.83179573 -30.83961325 14.27068105 -35.81152344 14.70898438 C-38.75455563 14.97759803 -41.69322105 15.2745634 -44.6328125 15.578125 C-75.61602862 18.58924787 -106.97815758 17.48168176 -138 15.6875 C-139.04670868 15.62873688 -140.09341736 15.56997375 -141.17184448 15.50942993 C-155.56393055 14.68123194 -169.74504844 13.1440303 -184 11 C-184 7.7 -184 4.4 -184 1 C-176.89026044 1.40384171 -169.80849133 1.87701651 -162.73266602 2.68457031 C-111.86208331 8.44749253 -57.9362606 9.48034151 -7.359375 0.55078125 C-4 0 -4 0 0 0 Z " fill="#FBDCCC" transform="translate(313,167)"/>
<path d="M0 0 C7.70095789 4.07280856 14.39301255 8.31297283 21 14 C21.8353125 14.70125 22.670625 15.4025 23.53125 16.125 C26.09939252 18.34438242 28.54393241 20.65744084 31 23 C32.1979142 24.05257744 32.1979142 24.05257744 33.42002869 25.12641907 C40.05132924 31.81920366 40.9682166 37.16707744 41.04428005 46.31429005 C41.01893534 49.20425943 40.94972177 52.09128577 40.87890625 54.98046875 C40.86209383 57.00496068 40.84929512 59.02948954 40.84031677 61.05403137 C40.8061593 66.35022328 40.71793578 71.64414895 40.61798096 76.93945312 C40.52546242 82.35580801 40.48471309 87.77253369 40.43945312 93.18945312 C40.343294 103.79411829 40.18515981 114.39651505 40 125 C31.09 125 22.18 125 13 125 C12.9906543 122.86080078 12.98130859 120.72160156 12.97167969 118.51757812 C12.93782632 111.42874362 12.88223121 104.34019767 12.81609726 97.25159454 C12.77668363 92.95612621 12.74446538 88.660861 12.72900391 84.36523438 C12.71379673 80.21526102 12.67928009 76.06584631 12.63169098 71.91612244 C12.61691883 70.33744681 12.60896138 68.75869141 12.60811615 67.1799469 C12.68377722 55.50505708 12.68377722 55.50505708 8 45 C5.56391207 42.61611084 5.56391207 42.61611084 3 41 C2.01 40.34 1.02 39.68 0 39 C-0.26653946 36.0204901 -0.34767784 33.2511418 -0.29296875 30.2734375 C-0.28872391 29.41062164 -0.28447906 28.54780579 -0.28010559 27.65884399 C-0.26328392 24.89724803 -0.22562598 22.13637617 -0.1875 19.375 C-0.17245764 17.50521886 -0.15876846 15.6354263 -0.14648438 13.765625 C-0.11336906 9.17680342 -0.06156339 4.58852456 0 0 Z " fill="#9CC5FA" transform="translate(350,372)"/>
<path d="M0 0 C0.57331055 0.25692627 1.14662109 0.51385254 1.73730469 0.77856445 C26.44947284 11.78901001 47.74579465 16.20618052 73.6875 6.5625 C74.51572266 6.26279297 75.34394531 5.96308594 76.19726562 5.65429688 C80.42540609 4.0937102 84.16437003 2.39818547 88 0 C88.66 0 89.32 0 90 0 C90.58095434 13.34043308 88.79769541 23.97567201 81 35 C80.33871094 35.95519531 80.33871094 35.95519531 79.6640625 36.9296875 C73.0327327 45.55424938 62.47648485 50.78331303 52 53 C37.09467921 54.58797606 25.28896018 50.46980507 13.74609375 41.1875 C6.80046853 34.86131384 0.56109725 24.48896682 -0.15478516 14.93408203 C-0.19593756 12.6607837 -0.1750844 10.39806104 -0.125 8.125 C-0.11597656 7.34125 -0.10695312 6.5575 -0.09765625 5.75 C-0.07428063 3.83319945 -0.03841653 1.91655809 0 0 Z " fill="#FCDDCD" transform="translate(176,302)"/>
<path d="M0 0 C13.86 0 27.72 0 42 0 C42 17.82 42 35.64 42 54 C28.14 54 14.28 54 0 54 C0 36.18 0 18.36 0 0 Z " fill="#D09080" transform="translate(424,359)"/>
<path d="M0 0 C3.25875 -0.061875 6.5175 -0.12375 9.875 -0.1875 C10.90093262 -0.21481201 11.92686523 -0.24212402 12.98388672 -0.27026367 C13.79100098 -0.27775635 14.59811523 -0.28524902 15.4296875 -0.29296875 C16.25710449 -0.3086792 17.08452148 -0.32438965 17.93701172 -0.34057617 C18.61779785 -0.22818604 19.29858398 -0.1157959 20 0 C22.42920859 3.64381288 22.24285565 5.33612445 22.22705078 9.67456055 C22.22734283 10.347995 22.22763489 11.02142944 22.22793579 11.715271 C22.22654344 13.93921839 22.21098703 16.16282995 22.1953125 18.38671875 C22.19158203 19.92942624 22.18873522 21.4721361 22.18673706 23.0148468 C22.17910329 27.07388864 22.15945706 31.1327872 22.1373291 35.19177246 C22.11686512 39.3342088 22.10773416 43.4766683 22.09765625 47.61914062 C22.07621086 55.74616681 22.04103086 63.87304907 22 72 C14.74 72 7.48 72 0 72 C0 62.1 0 52.2 0 42 C-0.99 42.495 -0.99 42.495 -2 43 C-5.95215076 43.29557554 -9.91309123 43.2779886 -13.875 43.3125 C-14.97714844 43.34150391 -16.07929688 43.37050781 -17.21484375 43.40039062 C-18.80619141 43.41295898 -18.80619141 43.41295898 -20.4296875 43.42578125 C-21.40147949 43.44036377 -22.37327148 43.45494629 -23.37451172 43.4699707 C-26.76360172 42.86331288 -27.92302374 41.69886684 -30 39 C-30.5625 35.5 -30.5625 35.5 -30 32 C-27.78780025 29.3556933 -26.02101791 28.14002884 -22.57543945 27.66748047 C-19.66512202 27.56952107 -16.78562996 27.60255944 -13.875 27.6875 C-12.37259766 27.70200195 -12.37259766 27.70200195 -10.83984375 27.71679688 C-3.51018209 27.8299393 -3.51018209 27.8299393 0 29 C0 19.43 0 9.86 0 0 Z " fill="#CC765E" transform="translate(326,425)"/>
<path d="M0 0 C3.95793295 -0.14700894 7.91515092 -0.2346378 11.875 -0.3125 C13.53789062 -0.3753418 13.53789062 -0.3753418 15.234375 -0.43945312 C24.24840611 -0.57201241 30.52870078 1.370921 37.55078125 7.0703125 C44.47261438 15.14322653 47.77478685 23.81734346 50.8125 33.875 C51.03188232 34.60074219 51.25126465 35.32648437 51.47729492 36.07421875 C52.59270151 39.95765292 53 42.89386919 53 47 C42.44 47 31.88 47 21 47 C17.64153627 38.04409673 17.64153627 38.04409673 16.5703125 34.1953125 C13.15243746 22.1911827 10.09847047 11.76106573 1.35546875 2.49609375 C0 1 0 1 0 0 Z " fill="#CE8F7F" transform="translate(254,15)"/>
<path d="M0 0 C9 2 9 2 20 6 C20 28.77 20 51.54 20 75 C13.4 75 6.8 75 0 75 C0 50.25 0 25.5 0 0 Z " fill="#FEDF7C" transform="translate(315,335)"/>
<path d="M0 0 C0 24.42 0 48.84 0 74 C-6.27 74 -12.54 74 -19 74 C-19 51.23 -19 28.46 -19 5 C-3 0 -3 0 0 0 Z " fill="#FEDF7C" transform="translate(126,335)"/>
<path d="M0 0 C13.86 0 27.72 0 42 0 C42 9.9 42 19.8 42 30 C28.14 30 14.28 30 0 30 C0 20.1 0 10.2 0 0 Z " fill="#CF8F7F" transform="translate(424,467)"/>
<path d="M0 0 C10.89 0 21.78 0 33 0 C35.03073921 5.41530457 36.74881429 10.48879643 38.0625 16.0625 C38.38553645 17.40783652 38.70974676 18.75289175 39.03515625 20.09765625 C39.1731665 20.68039307 39.31117676 21.26312988 39.45336914 21.86352539 C40.23703691 24.92644485 41.13144619 27.96006167 42 31 C-24 31 -90 31 -158 31 C-158 30.67 -158 30.34 -158 30 C-103.22 30 -48.44 30 8 30 C5.36 20.1 2.72 10.2 0 0 Z " fill="#28475F" transform="translate(279,77)"/>
<path d="M0 0 C0.57331055 0.25692627 1.14662109 0.51385254 1.73730469 0.77856445 C26.44947284 11.78901001 47.74579465 16.20618052 73.6875 6.5625 C74.51572266 6.26279297 75.34394531 5.96308594 76.19726562 5.65429688 C80.42540609 4.0937102 84.16437003 2.39818547 88 0 C88.66 0 89.32 0 90 0 C90.58663306 13.47083323 88.67137771 23.77843778 81 35 C78.19821938 31.7665725 77.25875825 28.89551231 76.3125 24.75 C76.06113281 23.67234375 75.80976563 22.5946875 75.55078125 21.484375 C75.36902344 20.66453125 75.18726563 19.8446875 75 19 C70.92132233 19.44494665 67.03125295 19.96130294 63.0625 21 C42.57128599 25.67157211 19.04251919 21.85892359 1 11 C0 10 0 10 -0.09765625 7.71484375 C-0.08605469 6.79832031 -0.07445312 5.88179688 -0.0625 4.9375 C-0.05347656 4.01839844 -0.04445312 3.09929687 -0.03515625 2.15234375 C-0.02355469 1.44207031 -0.01195312 0.73179687 0 0 Z " fill="#FACABB" transform="translate(176,302)"/>
<path d="M0 0 C13.86 0 27.72 0 42 0 C42 7.92 42 15.84 42 24 C28.14 24 14.28 24 0 24 C0 16.08 0 8.16 0 0 Z " fill="#FFE07D" transform="translate(424,428)"/>
<path d="M0 0 C1.84375 1.12890625 1.84375 1.12890625 3.75 2.5 C8.62785868 5.82452116 13.2644905 5.95449787 19 5 C22.0257024 3.80886232 24.66988388 2.33011612 27 0 C34.13367174 -0.46023689 34.13367174 -0.46023689 37 1.0625 C38.61407542 4.18977113 38.41705529 6.54439901 38 10 C34.73926431 16.22504086 27.39011127 18.86996291 21 21 C11.47966745 21.75643959 2.96258192 22.01717839 -5 16 C-8.26209963 13.11277875 -10.62541325 10.61072302 -11.625 6.3125 C-9.9480128 0.10764736 -5.93066615 -0.88959992 0 0 Z " fill="#040404" transform="translate(207,246)"/>
<path d="M0 0 C10.89 0 21.78 0 33 0 C21.66426699 17.00359951 1.24481356 23.29712215 -18.03515625 27.33203125 C-33.28131045 30.27671703 -33.28131045 30.27671703 -40 30 C-37.34622909 28.2308194 -34.92783234 27.15437979 -31.96118164 26.04760742 C-17.79350834 20.737155 -6.93907805 13.87815611 0 0 Z " fill="#CD8E7E" transform="translate(341,123)"/>
<path d="M0 0 C5.94 1.485 5.94 1.485 12 3 C12 16.86 12 30.72 12 45 C4.38544489 40.64882565 -1.79246283 36.05235001 -5 27.625 C-7.37952745 18.69788396 -6.57070994 11.00708311 -2 3 C-1.34 2.01 -0.68 1.02 0 0 Z " fill="#F7C7B9" transform="translate(102,161)"/>
<path d="M0 0 C3.63 0 7.26 0 11 0 C11 17.82 11 35.64 11 54 C7.37 54 3.74 54 0 54 C0 36.18 0 18.36 0 0 Z " fill="#CE7760" transform="translate(455,359)"/>
<path d="M0 0 C5.04345256 6.484439 5.98856783 13.06197356 5.5390625 21.05078125 C4.40022639 29.39399361 0.72268525 34.93824637 -5.75 40.1875 C-9.62295082 43 -9.62295082 43 -12 43 C-12 29.47 -12 15.94 -12 2 C-7.14786828 0.38262276 -4.81798756 -0.22942798 0 0 Z " fill="#FBCBBC" transform="translate(340,162)"/>
<path d="M0 0 C4.46839149 1.82292588 7.96993634 3.85512416 10.23046875 8.2734375 C10.23046875 12.0872126 10.08031946 14.29768298 7.54296875 17.2109375 C4.52460815 18.59775183 2.52076796 18.6847249 -0.76953125 18.2734375 C-1.36765625 17.7784375 -1.96578125 17.2834375 -2.58203125 16.7734375 C-6.04518042 14.39870664 -9.69702572 14.68409533 -13.76953125 15.2734375 C-15.93985601 16.71334373 -15.93985601 16.71334373 -17.76953125 18.2734375 C-21.38705244 18.80099267 -23.0713601 18.73276063 -26.14453125 16.7109375 C-28.41923744 13.29887821 -28.40488108 11.29731976 -27.76953125 7.2734375 C-20.90835828 -1.60572751 -10.39021581 -2.72578299 0 0 Z " fill="#040404" transform="translate(280.76953125,190.7265625)"/>
<path d="M0 0 C7.52231499 4.48137914 7.52231499 4.48137914 9.0625 9.1875 C8.9375 12.75 8.9375 12.75 6.875 15.6875 C3.45797879 18.08668511 2.01966478 18.44483656 -2.0625 17.75 C-2.660625 17.255 -3.25875 16.76 -3.875 16.25 C-7.33814917 13.87526914 -10.98999447 14.16065783 -15.0625 14.75 C-17.23282476 16.18990623 -17.23282476 16.18990623 -19.0625 17.75 C-22.68002119 18.27755517 -24.36432885 18.20932313 -27.4375 16.1875 C-29.75953985 12.70444023 -29.84143177 10.85709477 -29.0625 6.75 C-21.94636332 -1.762218 -10.36903034 -4.19808087 0 0 Z " fill="#040404" transform="translate(180.0625,191.25)"/>
<path d="M0 0 C7.20086199 1.60019155 13.19743157 3.41674616 20 6 C20 13.59 20 21.18 20 29 C13.59687576 26.86562525 7.26674003 24.50669601 1 22 C1 39.16 1 56.32 1 74 C7.27 74 13.54 74 20 74 C20 74.33 20 74.66 20 75 C13.4 75 6.8 75 0 75 C0 50.25 0 25.5 0 0 Z " fill="#EBC15E" transform="translate(315,335)"/>
<path d="M0 0 C2.3760271 0.45344029 4.75071581 0.91259259 7.125 1.375 C7.79015625 1.50132812 8.4553125 1.62765625 9.140625 1.7578125 C13.27822527 2.56910667 16.96199357 3.65399786 21 5 C21 11.93 21 18.86 21 26 C13.50287968 24.19346498 6.20818033 22.1678535 -1.08984375 19.671875 C-4.1601956 18.96301524 -6.00083929 19.13836267 -9 20 C-7.60008749 16.42892687 -6.09189713 12.92705498 -4.5 9.4375 C-4.0771875 8.50808594 -3.654375 7.57867187 -3.21875 6.62109375 C-2.18269045 4.39290158 -1.11323357 2.19039012 0 0 Z " fill="#7EB1F7" transform="translate(279,325)"/>
<path d="M0 0 C1.43569336 -0.00580078 1.43569336 -0.00580078 2.90039062 -0.01171875 C3.89361328 -0.00011719 4.88683594 0.01148438 5.91015625 0.0234375 C7.39418945 0.00603516 7.39418945 0.00603516 8.90820312 -0.01171875 C18.21752329 0.02584408 18.21752329 0.02584408 21.97265625 3.3984375 C23.09765625 6.7734375 23.09765625 6.7734375 22.97265625 10.3984375 C21.21875 13.0859375 21.21875 13.0859375 17.97265625 15.3984375 C13.93985266 16.14208042 10.00020556 16.0963439 5.91015625 16.0234375 C4.82154297 16.04277344 3.73292969 16.06210937 2.61132812 16.08203125 C-5.27319383 16.03351111 -5.27319383 16.03351111 -8.7734375 13.0859375 C-10.49726031 9.3912643 -10.17483798 7.27123053 -9.02734375 3.3984375 C-6.10026424 0.57558998 -4.01252606 0.01562597 0 0 Z " fill="#060403" transform="translate(123.02734375,452.6015625)"/>
<path d="M0 0 C1.47726562 -0.02320313 1.47726562 -0.02320313 2.984375 -0.046875 C7.43025515 -0.02284322 10.24552864 0.06620234 14.15234375 2.3125 C16 4.5 16 4.5 16.5625 8 C15.90835811 12.07021623 15.18216642 12.99895718 12 15.5 C9.40625 16.01757812 9.40625 16.01757812 6.5 16.03125 C5.448125 16.03640625 4.39625 16.0415625 3.3125 16.046875 C2.219375 16.03140625 1.12625 16.0159375 0 16 C-1.6396875 16.02320313 -1.6396875 16.02320313 -3.3125 16.046875 C-4.364375 16.04171875 -5.41625 16.0365625 -6.5 16.03125 C-7.4590625 16.02673828 -8.418125 16.02222656 -9.40625 16.01757812 C-12.74636371 15.35106447 -13.93646785 14.16638854 -16 11.5 C-16.5625 8 -16.5625 8 -16 4.5 C-11.59471012 -0.71556519 -6.31134188 -0.09913102 0 0 Z " fill="#040202" transform="translate(312,452.5)"/>
<path d="M0 0 C3.63 0 7.26 0 11 0 C11 9.9 11 19.8 11 30 C7.37 30 3.74 30 0 30 C0 20.1 0 10.2 0 0 Z " fill="#CD775F" transform="translate(455,467)"/>
<path d="M0 0 C13.86 0 27.72 0 42 0 C42 7.92 42 15.84 42 24 C38.37 24 34.74 24 31 24 C31 16.41 31 8.82 31 1 C20.77 1 10.54 1 0 1 C0 0.67 0 0.34 0 0 Z " fill="#FCCF66" transform="translate(424,428)"/>
</svg>
