<?xml version="1.0" encoding="UTF-8"?>
<svg version="1.1" xmlns="http://www.w3.org/2000/svg" viewBox="0 0 512 512" fill="currentColor">
<path d="M0 0 C1.4868203 -0.01485695 1.4868203 -0.01485695 3.00367737 -0.03001404 C4.08999451 -0.02551239 5.17631165 -0.02101074 6.29554749 -0.01637268 C7.44048172 -0.02323593 8.58541595 -0.03009918 9.76504517 -0.03717041 C13.56057537 -0.05551474 17.35569523 -0.05158987 21.15126038 -0.0459137 C23.78298071 -0.05047184 26.41469985 -0.05577631 29.04641724 -0.0617981 C34.56700077 -0.07183384 40.08746721 -0.06852174 45.60804749 -0.05836487 C51.9889513 -0.04688456 58.36943477 -0.06095571 64.75028318 -0.08776134 C70.88898773 -0.11258406 77.02749826 -0.1150974 83.16624641 -0.10864449 C85.77819582 -0.10849081 88.39015314 -0.11457337 91.00207329 -0.12693596 C94.65099958 -0.14177211 98.29899458 -0.13122189 101.94789124 -0.11402893 C103.03218414 -0.1236969 104.11647705 -0.13336487 105.23362732 -0.14332581 C112.50610891 -0.07137794 112.50610891 -0.07137794 115.82632446 2.16903687 C118.181058 6.01018356 118.31074579 9.16406262 118.29994202 13.61521912 C118.29986649 14.65599609 118.29979095 15.69677307 118.29971313 16.76908875 C118.29455185 17.88588013 118.28939056 19.00267151 118.28407288 20.15330505 C118.28195045 21.87610687 118.28195045 21.87610687 118.27978516 23.63371277 C118.27418806 27.30172837 118.26163606 30.96968291 118.24891663 34.63768005 C118.24390125 37.12465834 118.23933841 39.61163758 118.23524475 42.09861755 C118.22421958 48.19499255 118.20748431 54.29133194 118.18641663 60.38768005 C119.49997131 60.3412738 120.813526 60.29486755 122.16688538 60.24705505 C123.90253967 60.20952739 125.63821862 60.1731283 127.37391663 60.13768005 C128.23823303 60.10416443 129.10254944 60.0706488 129.99305725 60.03611755 C134.24759602 59.97091389 136.54369379 59.98937294 140.23719788 62.27830505 C143.86116332 66.20003118 143.31606092 69.80792698 143.28407288 74.89549255 C143.28195045 76.15642227 143.28195045 76.15642227 143.27978516 77.44282532 C143.274179 80.1328128 143.26162549 82.82271764 143.24891663 85.51268005 C143.24390242 87.33429344 143.23933937 89.15590812 143.23524475 90.9775238 C143.22505768 95.4476089 143.20609899 99.91762804 143.18641663 104.38768005 C144.54897331 104.70163979 144.54897331 104.70163979 145.9390564 105.02194214 C159.88966111 108.2595076 173.77652033 111.74997097 187.66688538 115.2353363 C188.62954799 115.47683194 188.62954799 115.47683194 189.61165833 115.72320628 C195.68106192 117.2458196 201.7502412 118.76932328 207.81879711 120.29531193 C215.52130766 122.23212659 223.22498701 124.16414231 230.93030661 126.08975226 C236.38756029 127.45396761 241.84345058 128.82354736 247.29835969 130.19710726 C250.54250189 131.01384171 253.78733035 131.82753443 257.03333092 132.63687325 C260.64097403 133.53692715 264.24630641 134.44572564 267.85121155 135.35667419 C268.91567001 135.62012634 269.98012848 135.88357849 271.07684326 136.15501404 C282.98569601 139.18695944 282.98569601 139.18695944 287.18641663 143.38768005 C287.44056696 145.66293699 287.44056696 145.66293699 287.44647884 148.57051563 C287.45707723 150.22821813 287.45707723 150.22821813 287.46788973 151.91940957 C287.46547464 153.1436039 287.46305956 154.36779823 287.46057129 155.62908936 C287.46580797 156.92175647 287.47104465 158.21442359 287.47644001 159.54626244 C287.49066949 163.14641024 287.49228237 166.74647191 287.4918431 170.34664381 C287.49348699 174.22474109 287.50654546 178.10280244 287.51803589 181.98088074 C287.54091882 190.46636405 287.54881008 198.95182241 287.55386233 207.43733239 C287.55711564 212.7330381 287.5636359 218.02873651 287.57086372 223.3244381 C287.59043421 237.97891793 287.6068357 252.63339097 287.60974026 267.28788471 C287.60992783 268.22628943 287.6101154 269.16469414 287.61030865 270.13153536 C287.61067491 272.0340215 287.61103861 273.93650763 287.61139976 275.83899377 C287.61158257 276.78342694 287.61176538 277.72786011 287.61195374 278.70091248 C287.61222456 280.11928597 287.61222456 280.11928597 287.61250085 281.56631347 C287.61604328 296.89177251 287.6430679 312.21709111 287.68045162 327.54250143 C287.71850205 343.26671899 287.7378975 358.99086682 287.73819977 374.71513146 C287.73878509 383.54784206 287.74732493 392.38038516 287.77619743 401.21305275 C287.80066779 408.73377615 287.8080238 416.25427097 287.79294991 423.77502338 C287.78576294 427.61370408 287.78671437 431.45193305 287.8093605 435.29056358 C287.83365957 439.44915051 287.81936501 443.60670222 287.80114746 447.76531982 C287.82094741 449.59157307 287.82094741 449.59157307 287.84114736 451.45472032 C287.74988511 460.53277387 287.74988511 460.53277387 284.78285789 463.63899803 C282.14420488 465.41610932 280.98138418 466.00370122 277.8551178 465.95530701 C277.03464462 465.95492935 276.21417145 465.9545517 275.36883545 465.9541626 C274.49781693 465.92835617 273.6267984 465.90254974 272.72938538 465.8759613 C271.82642227 465.86888657 270.92345917 465.86181183 269.99313354 465.85452271 C267.11920575 465.82661325 264.24725191 465.76388238 261.37391663 465.70018005 C259.42147088 465.67509267 257.46899448 465.65228027 255.51649475 465.63182068 C250.73904561 465.57679795 245.96306537 465.49055003 241.18641663 465.38768005 C241.20212708 466.11882019 241.21783752 466.84996033 241.23402405 467.60325623 C241.29652014 470.92715165 241.33545415 474.25092326 241.37391663 477.57518005 C241.4116217 479.30091248 241.4116217 479.30091248 241.4500885 481.06150818 C241.45975647 482.17332458 241.46942444 483.28514099 241.47938538 484.4306488 C241.49509583 485.451828 241.51080627 486.4730072 241.5269928 487.52513123 C241.13159526 490.84845464 240.1543186 492.70510164 238.18641663 495.38768005 C235.9197133 496.52103172 234.70252788 496.51111817 232.18748474 496.50793457 C231.35173416 496.50930923 230.51598358 496.5106839 229.65490723 496.51210022 C228.73637466 496.50850494 227.8178421 496.50490967 226.87147522 496.50120544 C225.90557968 496.50135147 224.93968414 496.5014975 223.94451904 496.50164795 C220.74127482 496.50094943 217.53808823 496.49315983 214.33485413 496.4853363 C212.11810844 496.48347191 209.90136234 496.48204811 207.68461609 496.48104858 C201.841882 496.47722509 195.99917266 496.46739623 190.15644836 496.4563446 C184.19769119 496.44612688 178.23893003 496.44155019 172.28016663 496.43650818 C160.58223907 496.42577383 148.8843299 496.40869941 137.18641663 496.38768005 C137.10391663 497.15080505 137.02141663 497.91393005 136.93641663 498.70018005 C135.99967264 502.05684599 135.17919652 502.67032829 132.18641663 504.38768005 C129.19100189 504.76799679 129.19100189 504.76799679 125.62013245 504.77536011 C124.6330614 504.78343841 124.6330614 504.78343841 123.62604952 504.79167992 C121.42267396 504.80597915 119.21989751 504.79885136 117.01649475 504.79173279 C115.43620317 504.79743531 113.85591571 504.80439911 112.27563477 504.81253052 C107.98435831 504.83048896 103.69328603 504.82928868 99.40198326 504.82358813 C95.82078655 504.82050054 92.2396293 504.82658385 88.65843821 504.83262688 C80.21151359 504.84667894 71.76469009 504.8451048 63.31776428 504.83372498 C54.59940899 504.82223914 45.88136114 504.83632562 37.16304636 504.86312145 C29.68014052 504.88526031 22.19733132 504.89192005 14.71439505 504.88604504 C10.24406161 504.88267037 5.77392533 504.8851244 1.30361938 504.90229607 C-2.89897658 504.91773464 -7.10111605 504.91384438 -11.30369377 504.89499092 C-12.84684599 504.89129661 -14.39003181 504.89443799 -15.93315315 504.90487671 C-18.03839841 504.91803187 -20.14212007 504.90659075 -22.24729919 504.8888855 C-23.42568611 504.88867621 -24.60407303 504.88846693 -25.81816864 504.8882513 C-29.45027372 504.28128114 -30.59992118 503.27674331 -32.81358337 500.38768005 C-33.14358337 499.39768005 -33.47358337 498.40768005 -33.81358337 497.38768005 C-34.98234009 497.38181381 -36.1510968 497.37594757 -37.35527039 497.36990356 C-48.36183682 497.31272696 -59.36820472 497.23999186 -70.37456894 497.15196514 C-76.03326244 497.10720968 -81.69188307 497.06796491 -87.35069275 497.04124451 C-92.81026787 497.01526328 -98.26956338 496.97489751 -103.72896576 496.92449379 C-105.8133573 496.90779001 -107.89779724 496.89629766 -109.9822464 496.89006615 C-112.89865536 496.8804633 -115.81434325 496.85244964 -118.73057556 496.8200531 C-119.59516388 496.82148819 -120.4597522 496.82292328 -121.35054016 496.82440186 C-124.85485489 496.76923359 -127.19328865 496.71935147 -130.31877136 495.04815674 C-133.17105371 491.87976613 -132.93182634 488.68154412 -132.91123962 484.6259613 C-132.90801697 483.50769958 -132.90479431 482.38943787 -132.901474 481.23728943 C-132.88890564 479.48642029 -132.88890564 479.48642029 -132.87608337 477.70018005 C-132.87157166 476.5213324 -132.86705994 475.34248474 -132.8624115 474.12791443 C-132.85061611 471.21445217 -132.83415608 468.30109142 -132.81358337 465.38768005 C-134.63732483 465.42695618 -134.63732483 465.42695618 -136.49790955 465.46702576 C-141.01709018 465.55765765 -145.53619081 465.61497653 -150.05601501 465.66233826 C-152.0105796 465.68745286 -153.96505054 465.72155137 -155.91929626 465.76487732 C-158.73195005 465.8256644 -161.5433604 465.85391988 -164.35655212 465.8759613 C-165.22757065 465.90176773 -166.09858917 465.92757416 -166.9960022 465.9541626 C-167.81647537 465.95454025 -168.63694855 465.95491791 -169.48228455 465.95530701 C-170.19954208 465.96641006 -170.91679962 465.97751312 -171.65579224 465.98895264 C-175.06277253 465.03959113 -177.07084012 463.39530925 -178.81358337 460.38768005 C-179.58069779 456.19390038 -179.48750852 452.03191332 -179.44850159 447.77877808 C-179.45630154 446.48284212 -179.46410149 445.18690616 -179.47213781 443.85169941 C-179.49302384 440.25619958 -179.48268866 436.6613627 -179.46720672 433.06586039 C-179.45590418 429.1878074 -179.47335034 425.30986924 -179.48710632 421.43183899 C-179.50935448 413.83573673 -179.50453078 406.2398813 -179.49004312 398.64376932 C-179.47875788 392.4716095 -179.47721687 386.29951893 -179.4826622 380.12735176 C-179.48342837 379.24939459 -179.48419453 378.37143742 -179.48498391 377.46687548 C-179.48658251 375.68341706 -179.48820358 373.89995865 -179.48984687 372.11650027 C-179.50410877 355.38832794 -179.48770431 338.66029255 -179.46084504 321.93214268 C-179.43850194 307.57195702 -179.44238906 293.21197341 -179.46543884 278.85179138 C-179.49218236 262.18253678 -179.50273955 245.5134022 -179.48737752 228.84412915 C-179.48578475 227.06748364 -179.48421289 225.29083812 -179.4826622 223.51419258 C-179.48189082 222.64000741 -179.48111945 221.76582225 -179.48032469 220.86514662 C-179.47600363 214.69836233 -179.48330289 208.53165404 -179.49505997 202.36488152 C-179.50906728 194.85258916 -179.50532234 187.34055809 -179.47865625 179.82829576 C-179.46549457 175.9937896 -179.46040516 172.15971945 -179.47690201 168.32521629 C-179.49449607 164.17296228 -179.47352298 160.02181387 -179.44850159 155.86959839 C-179.4596552 154.65122974 -179.4708088 153.4328611 -179.4823004 152.17757219 C-179.38750833 144.11425185 -179.38750833 144.11425185 -176.64129162 140.63762379 C-173.488545 139.24400198 -171.377478 138.89422425 -167.93533325 138.90666199 C-166.75889252 138.90116333 -165.58245178 138.89566467 -164.37036133 138.88999939 C-163.08858505 138.90438049 -161.80680878 138.9187616 -160.4861908 138.93357849 C-159.11601291 138.93470739 -157.74583261 138.93407228 -156.37565613 138.93180847 C-152.66304787 138.93066202 -148.9509578 138.95415954 -145.23846984 138.9821043 C-141.35608922 139.00712977 -137.47369639 139.00946085 -133.59124756 139.01420593 C-126.24248644 139.02663238 -118.89396368 139.05944938 -111.54530746 139.09960389 C-103.1777907 139.144332 -94.81026249 139.16631123 -86.44265592 139.18638563 C-69.23282726 139.22818241 -52.02323053 139.29852789 -34.81358337 139.38768005 C-34.82246582 138.48423355 -34.83134827 137.58078705 -34.84049988 136.64996338 C-34.92068725 128.13092575 -34.98156888 119.61201509 -35.02083206 111.09268665 C-35.04169644 106.71290789 -35.06999273 102.33344128 -35.11534119 97.95384216 C-35.1588405 93.72631454 -35.18272914 89.49908694 -35.19309235 85.27135277 C-35.20047643 83.65939804 -35.21489604 82.04745952 -35.2365036 80.43563271 C-35.26559315 78.1755554 -35.26953725 75.91671363 -35.26768494 73.65647888 C-35.27656738 72.37074478 -35.28544983 71.08501068 -35.29460144 69.76031494 C-34.73160378 65.81288413 -33.59627402 64.18574188 -30.81358337 61.38768005 C-28.46505809 60.21341741 -27.07584272 60.27259832 -24.46202087 60.2900238 C-23.61123962 60.29324646 -22.76045837 60.29646912 -21.88389587 60.29978943 C-20.99444275 60.30816833 -20.10498962 60.31654724 -19.18858337 60.32518005 C-18.29139587 60.32969177 -17.39420837 60.33420349 -16.46983337 60.33885193 C-14.25101689 60.35065414 -12.03233319 60.3671185 -9.81358337 60.38768005 C-9.8180246 59.74732315 -9.82246582 59.10696625 -9.82704163 58.44720459 C-9.87130218 51.78000623 -9.9014612 45.11284964 -9.92344666 38.44554138 C-9.93350169 35.95756841 -9.94714753 33.46960724 -9.96446228 30.98167419 C-9.98873204 27.40474024 -10.00007156 23.8279626 -10.00889587 20.2509613 C-10.01921844 19.13933121 -10.02954102 18.02770111 -10.04017639 16.88238525 C-10.04032745 15.84168381 -10.04047852 14.80098236 -10.04063416 13.72874451 C-10.04507538 12.81607315 -10.0495166 11.90340179 -10.05409241 10.96307373 C-9.71855204 7.37007547 -8.77713494 4.61655629 -6.5411005 1.76480484 C-4.25724571 -0.05581562 -2.90245032 0.00817972 0 0 Z " fill="#010101" transform="translate(201.81358337402344,3.6123199462890625)"/>
<path d="M0 0 C47.52 0 95.04 0 144 0 C144 59.73 144 119.46 144 181 C96.48 181 48.96 181 0 181 C0 121.27 0 61.54 0 0 Z " fill="#FD5858" transform="translate(184,81)"/>
<path d="M0 0 C6.89246625 1.25317568 13.51769835 2.53807372 20.2421875 4.35546875 C21.08065216 4.5779277 21.91911682 4.80038666 22.7829895 5.02958679 C24.56378197 5.50215068 26.34412003 5.97642995 28.12402344 6.45233154 C32.80655144 7.70368604 37.49276226 8.94101176 42.1796875 10.17578125 C43.10932312 10.42070312 44.03895874 10.665625 44.99676514 10.91796875 C52.97358988 13.01059717 60.97558579 14.97328216 69 16.875 C77.0534663 18.78408863 85.04838157 20.78595132 93.00146484 23.07641602 C104.88977705 26.4502015 116.97873718 29.14680014 129 32 C129 40.25 129 48.5 129 57 C126.74897461 57.0093457 124.49794922 57.01869141 122.17871094 57.02832031 C114.74260449 57.0620825 107.30677579 57.11762699 99.87089157 57.18390274 C95.36231781 57.22341776 90.85394054 57.25558636 86.34521484 57.27099609 C81.99426964 57.28613637 77.64386447 57.32053453 73.29315948 57.36830902 C71.63302554 57.38315008 69.97281451 57.39104258 68.31261444 57.39188385 C65.98744587 57.39424719 63.66377745 57.42127256 61.33886719 57.45410156 C60.6519429 57.4490712 59.96501862 57.44404083 59.25727844 57.43885803 C56.16267454 57.50649443 54.33043265 57.75317495 51.82441711 59.62510681 C49.42639754 62.74667386 49.49336906 64.60200895 49.48101807 68.51727295 C49.46976619 69.49632674 49.46976619 69.49632674 49.458287 70.49515939 C49.43800083 72.68036476 49.44611348 74.86453342 49.45410156 77.04980469 C49.44536697 78.61688769 49.43488159 80.18396176 49.42277527 81.75102234 C49.39488036 86.00485281 49.39151134 90.25839278 49.39249516 94.51230145 C49.38936904 98.95799476 49.36375714 103.40355666 49.34051514 107.84918213 C49.29992845 116.26742259 49.27960817 124.68558553 49.26654124 133.10390878 C49.25068022 142.68792749 49.2122684 152.27181412 49.17194796 161.85575628 C49.08951252 181.57046064 49.03544319 201.28515884 49 221 C47.88850838 220.68406136 47.88850838 220.68406136 46.75456238 220.36174011 C45.28506889 219.95101006 45.28506889 219.95101006 43.78588867 219.53198242 C42.81801926 219.25948166 41.85014984 218.9869809 40.85295105 218.70622253 C36.99790285 217.75193981 33.26846216 217.44550545 29.3125 217.3125 C28.59900391 217.27833984 27.88550781 217.24417969 27.15039062 217.20898438 C25.43407403 217.12835205 23.7170733 217.0624782 22 217 C21.77679765 211.84078257 21.61389775 206.68439491 21.50561523 201.52148438 C21.46046874 199.76740561 21.39913079 198.01366349 21.32104492 196.26074219 C20.68444382 181.59811289 20.68444382 181.59811289 23.93579102 177.6484375 C26.23275045 176.18777344 28.51699571 175.10176537 31 174 C35.17307029 168.87662657 36.80442826 162.93684809 36.4140625 156.3828125 C35.25715164 149.72511792 31.9933033 145.47471597 26.87890625 141.2265625 C18.30961759 135.63247385 11.26619194 137.5633096 0 137 C0 91.79 0 46.58 0 0 Z " fill="#FCDD3F" transform="translate(344,125)"/>
<path d="M0 0 C2.53685709 1.24891426 5.04150624 2.54992577 7.5390625 3.875 C18.153363 9.44298702 26.60153821 12.09464139 38.625 12.25 C39.33003662 12.25966797 40.03507324 12.26933594 40.76147461 12.27929688 C51.92757433 12.20625616 62.84878198 8.54189589 71.11328125 0.9765625 C73 0 73 0 75.421875 0.57421875 C89.50435738 8.36225825 99.7008447 23.94604825 104.4375 39 C108.41234326 52.97433685 107 64.24655482 107 80 C61.46 80 15.92 80 -31 80 C-31 29.92509363 -31 29.92509363 -12 10 C-8.20315751 6.33920073 -4.39176495 2.9278433 0 0 Z " fill="#4CA4FC" transform="translate(216,412)"/>
<path d="M0 0 C42.57 0 85.14 0 129 0 C129 33.99 129 67.98 129 103 C122.73 103.33 116.46 103.66 110 104 C101.41474581 107.21947032 98.13169359 109.82589755 93.5625 117.375 C91.95592109 124.87236827 92.78827917 130.65883292 96.02734375 137.578125 C97.77516698 140.09703934 97.77516698 140.09703934 100.17993164 140.96728516 C103.17202347 142.35669189 104.88817084 143.43458967 107 146 C108.58750911 152.06854376 107.83865234 158.67575618 107.5625 164.875 C107.51732706 166.63010626 107.47626733 168.38532352 107.43945312 170.140625 C107.34054544 174.42983126 107.18543755 178.71369825 107 183 C105.20755859 183.05607422 105.20755859 183.05607422 103.37890625 183.11328125 C101.77340935 183.17900335 100.16794193 183.24544845 98.5625 183.3125 C97.77939453 183.33505859 96.99628906 183.35761719 96.18945312 183.38085938 C95.40634766 183.41630859 94.62324219 183.45175781 93.81640625 183.48828125 C92.75595093 183.52755737 92.75595093 183.52755737 91.67407227 183.56762695 C87.62863118 184.2217378 83.85416408 185.63291842 80 187 C79.99945523 186.18424374 79.99891047 185.36848747 79.99834919 184.52801132 C79.9833898 164.68994788 79.94097718 144.85210939 79.86790943 125.0141716 C79.83323836 115.42071738 79.80790114 105.82740715 79.80444336 96.23388672 C79.8014064 87.87333731 79.78095221 79.51304422 79.73947543 71.15259385 C79.71811919 66.72464901 79.70555817 62.2970688 79.71384621 57.86907196 C79.72136992 53.70250955 79.70563296 49.53668698 79.67193985 45.37026024 C79.66368614 43.84003314 79.6639807 42.30973275 79.67340279 40.77951241 C79.68498956 38.69122286 79.66596759 36.60537243 79.63923645 34.51727295 C79.63647107 33.34843945 79.63370569 32.17960594 79.63085651 30.97535324 C79.2398229 27.82001533 79.2398229 27.82001533 76.67321014 25.62510681 C73.16645426 23.4932681 70.73202331 23.48198994 66.6394043 23.45410156 C65.91690994 23.44376389 65.19441559 23.43342621 64.45002747 23.42277527 C62.07452892 23.39340199 59.69988443 23.39184934 57.32421875 23.390625 C55.67225017 23.37563955 54.02029655 23.35891164 52.36836243 23.34051514 C48.02993065 23.2968699 43.69170097 23.27684892 39.35308838 23.26177979 C34.92211979 23.24219842 30.49136913 23.20022959 26.06054688 23.16015625 C17.37372829 23.08488456 8.6870675 23.03664496 0 23 C0 15.41 0 7.82 0 0 Z " fill="#64C9FB" transform="translate(39,159)"/>
<path d="M0 0 C62.04 0 124.08 0 188 0 C188 13.53 188 27.06 188 41 C184.37 43.97 180.74 46.94 177 50 C167.71703801 62.67197986 164.29014634 73.96001711 166.35546875 89.7109375 C167.07316158 93.30553579 168.1604893 96.48529778 169.6875 99.8125 C171.07184326 103.17447648 171.3076981 103.78627024 170 107 C168.22265625 108.921875 168.22265625 108.921875 166.0625 110.75 C165.35222656 111.36359375 164.64195312 111.9771875 163.91015625 112.609375 C162 114 162 114 160 114 C158.75714671 112.5455338 157.58095206 111.03384277 156.4375 109.5 C152.99686315 105.07542876 149.35188466 101.40177301 145.078125 97.7890625 C142.94459428 95.95230109 140.96773964 94.0120581 139 92 C139.33773437 91.33613281 139.67546875 90.67226563 140.0234375 89.98828125 C140.69246094 88.66376953 140.69246094 88.66376953 141.375 87.3125 C142.03628906 86.00732422 142.03628906 86.00732422 142.7109375 84.67578125 C148.69483678 72.25465698 149.3285138 55.49045432 144.9375 42.375 C142.4116998 36.29304484 139.08857501 31.13692758 135 26 C134.236875 24.948125 133.47375 23.89625 132.6875 22.8125 C123.28857712 12.97641791 109.38649533 6.39521683 95.73828125 5.6640625 C77.97483086 5.30227334 64.36223126 10.32862264 51.3203125 22.59375 C39.53469755 34.81586921 35.39872357 49.40341865 35.64453125 65.93359375 C36.00666793 73.99992085 38.44628384 81.82554126 42.66796875 88.7265625 C44 91 44 91 44 94 C42.3828125 95.47265625 42.3828125 95.47265625 40.125 97.0625 C35.27522847 100.62512838 31.31276008 104.72032713 27.26171875 109.15625 C25 111 25 111 22.87890625 110.94140625 C20.02857028 109.51327534 18.14280804 107.32137538 16 105 C16.34933594 104.25234375 16.69867188 103.5046875 17.05859375 102.734375 C17.51363281 101.74953125 17.96867187 100.7646875 18.4375 99.75 C18.88996094 98.77546875 19.34242188 97.8009375 19.80859375 96.796875 C24.27385261 86.31449681 22.62411521 73.53427519 19 63 C17.2838783 59.43460922 15.29733128 56.21743589 13 53 C12.39671875 52.13955078 12.39671875 52.13955078 11.78125 51.26171875 C8.36523486 46.79550977 4.75326422 44.56494817 0 41 C0 27.47 0 13.94 0 0 Z " fill="#7FE8FD" transform="translate(162,307)"/>
<path d="M0 0 C0.92860336 -0.0065712 1.85720673 -0.0131424 2.81394958 -0.01991272 C5.89574254 -0.03966964 8.97748673 -0.05131333 12.05932617 -0.0612793 C13.11037725 -0.06535482 14.16142834 -0.06943035 15.24432945 -0.07362938 C20.80676452 -0.09449982 26.36917485 -0.10879762 31.93164062 -0.11816406 C37.68200987 -0.1292336 43.43199269 -0.16363721 49.18222523 -0.20333576 C53.59942859 -0.22945895 58.01653927 -0.23785206 62.4338131 -0.24144554 C64.55372415 -0.24632222 66.67363077 -0.2579668 68.79346657 -0.27648354 C71.75975953 -0.30078439 74.7250446 -0.29992645 77.69140625 -0.29296875 C79.00623489 -0.31218384 79.00623489 -0.31218384 80.34762573 -0.33178711 C84.44712643 -0.29671908 86.5150062 -0.15372876 90.06156921 2.08137512 C92.97084602 5.16330784 93.17267255 6.87090941 93.23266602 11.00634766 C93.24872894 12.01111649 93.26479187 13.01588531 93.28134155 14.05110168 C93.32574598 18.64831919 93.3668543 23.24539171 93.38989258 27.84277344 C93.40645813 30.26865223 93.43375567 32.69448211 93.47192383 35.12011719 C93.52664031 38.61459724 93.54855933 42.10793268 93.56323242 45.6027832 C93.58590179 46.68626541 93.60857117 47.76974762 93.63192749 48.88606262 C93.60836526 57.27101285 93.60836526 57.27101285 90.56958008 60.33789062 C89.73475098 60.94479736 88.89992188 61.5517041 88.03979492 62.17700195 C87.70979492 62.50700195 87.37979492 62.83700195 87.03979492 63.17700195 C84.08356565 63.2936074 81.15039656 63.34503114 78.19311523 63.35400391 C77.2646579 63.3605751 76.33620056 63.3671463 75.37960815 63.37391663 C72.29237802 63.39370391 69.20519668 63.40532492 66.11791992 63.4152832 C65.06595177 63.41935873 64.01398361 63.42343426 62.93013763 63.42763329 C57.36122329 63.44851828 51.79233375 63.46280884 46.22338867 63.47216797 C40.46514362 63.48323098 34.70728517 63.51762291 28.94917679 63.55733967 C24.52768222 63.58346524 20.10628024 63.59185626 15.68471527 63.59544945 C13.56201317 63.60032676 11.4393155 63.61197312 9.31668854 63.63048744 C6.3454974 63.65478982 3.37531247 63.65392987 0.40405273 63.64697266 C-0.47407074 63.65978271 -1.35219421 63.67259277 -2.25692749 63.68579102 C-6.36010338 63.65075393 -8.43317984 63.50903317 -11.98297119 61.27262878 C-14.89456479 58.18669458 -15.09123725 56.4873112 -15.13720703 52.34765625 C-15.15004227 51.34288742 -15.1628775 50.33811859 -15.17610168 49.30290222 C-15.18348862 48.21334732 -15.19087555 47.12379242 -15.19848633 46.0012207 C-15.20655807 44.88391068 -15.21462982 43.76660065 -15.22294617 42.61543274 C-15.23679454 40.24738114 -15.24751331 37.87930952 -15.25537109 35.51123047 C-15.27258544 31.88967057 -15.31646636 28.26902296 -15.3605957 24.64770508 C-15.37072223 22.34888368 -15.37923846 20.0500545 -15.38598633 17.7512207 C-15.40349442 16.66773849 -15.4210025 15.58425629 -15.43904114 14.46794128 C-15.41731736 6.93682128 -15.41731736 6.93682128 -13.05859375 3.01611328 C-9.00886925 -0.53322641 -5.14931086 0.0156873 0 0 Z " fill="#060202" transform="translate(216.960205078125,181.822998046875)"/>
<path d="M0 0 C0.94854858 -0.0087616 1.89709717 -0.01752319 2.87438965 -0.02655029 C6.00526876 -0.04853058 9.1347319 -0.03399591 12.265625 -0.01708984 C14.44368765 -0.02045836 16.62174847 -0.02531127 18.79980469 -0.03158569 C23.36281241 -0.03895519 27.92533048 -0.02824856 32.48828125 -0.00488281 C38.33631362 0.02360447 44.18319869 0.00720099 50.03118896 -0.02274513 C54.52824544 -0.04081569 59.02503005 -0.03506107 63.52209473 -0.02210617 C65.67826473 -0.01877152 67.83445944 -0.02286129 69.99060059 -0.03450394 C73.00481511 -0.04720818 76.01717368 -0.02784056 79.03125 0 C80.36706116 -0.01518173 80.36706116 -0.01518173 81.7298584 -0.03067017 C86.05107963 0.04324741 87.98027122 0.25820088 91.56895447 2.86428833 C93.67203941 5.87056053 94.14277795 7.20289194 94.14672852 10.81689453 C94.15926163 11.82143677 94.17179474 12.825979 94.18470764 13.86096191 C94.17144943 14.93503296 94.15819122 16.009104 94.14453125 17.11572266 C94.14694321 18.22878784 94.14935516 19.34185303 94.15184021 20.48864746 C94.15086197 22.8388221 94.13747401 25.18901984 94.11254883 27.5390625 C94.07824474 31.13442336 94.09189205 34.72732582 94.11132812 38.32275391 C94.10442953 40.60792061 94.09475704 42.89308097 94.08203125 45.17822266 C94.08947105 46.78932922 94.08947105 46.78932922 94.09706116 48.4329834 C93.97964811 55.88081564 93.97964811 55.88081564 91.60522461 59.80126953 C87.55366431 63.37993478 83.63041822 62.8219367 78.46362305 62.85571289 C77.05608765 62.87038857 77.05608765 62.87038857 75.62011719 62.88536072 C72.5058739 62.91534614 69.3916736 62.93670778 66.27734375 62.95556641 C64.68421828 62.96542415 64.68421828 62.96542415 63.05890846 62.97548103 C57.43813026 63.00808703 51.81737113 63.03253595 46.1965332 63.05200195 C41.53935252 63.06982716 36.88277594 63.10466557 32.22583008 63.15454102 C26.60839807 63.21463821 20.99152703 63.24546336 15.37378883 63.25517464 C13.2315093 63.26374774 11.08924549 63.28261118 8.94714928 63.31191826 C5.94936795 63.35072686 2.95378238 63.35188118 -0.04418945 63.34399414 C-0.93009262 63.36399475 -1.81599579 63.38399536 -2.72874451 63.40460205 C-8.52284815 63.3361235 -8.52284815 63.3361235 -11.15415573 61.45019817 C-14.02160542 58.29849872 -15.11233929 55.5570838 -15.13134766 51.36352539 C-15.14710846 50.35905869 -15.16286926 49.35459198 -15.17910767 48.31968689 C-15.16898651 47.25077713 -15.15886536 46.18186737 -15.1484375 45.08056641 C-15.15322113 43.96891617 -15.15800476 42.85726593 -15.16293335 41.71192932 C-15.16632813 39.36775289 -15.15715549 37.02352885 -15.13623047 34.67944336 C-15.10943629 31.09267709 -15.13600857 27.50903318 -15.16796875 23.92236328 C-15.16466508 21.64175742 -15.15825973 19.36115351 -15.1484375 17.08056641 C-15.15855865 16.00963242 -15.16867981 14.93869843 -15.17910767 13.83531189 C-15.16334686 12.83399734 -15.14758606 11.8326828 -15.13134766 10.80102539 C-15.12736969 9.92421616 -15.12339172 9.04740692 -15.11929321 8.14402771 C-13.0808861 0.12722383 -6.96826179 -0.07919554 0 0 Z " fill="#020000" transform="translate(216.484375,102.35302734375)"/>
<path d="M0 0 C11.23356 -0.475266 20.61328279 3.07883648 29.296875 10.18359375 C36.16825173 16.61165586 41.87840963 25.4087717 42.5703125 34.95703125 C42.9690427 47.56187248 41.49878051 57.65939076 33.046875 67.62109375 C23.72630065 77.12684508 14.58064539 81.42813175 1.359375 81.62109375 C-11.27545309 81.52711143 -19.21823682 77.0901042 -28.421875 68.59765625 C-36.36263742 60.29226699 -39.03563356 48.9268517 -38.91015625 37.81640625 C-38.30194751 27.14406426 -33.35106597 17.20843823 -25.515625 9.87109375 C-17.79647039 3.87698724 -9.64832726 0.65530546 0 0 Z " fill="#FDD7B1" transform="translate(251.703125,327.81640625)"/>
<path d="M0 0 C2.75516468 1.02760196 5.26232948 2.35969641 7.85546875 3.74609375 C18.55594237 9.14161673 29.43110187 10.78997939 41.06396484 7.21118164 C45.56381314 5.72733085 49.46046802 4.30332531 53.36328125 1.57421875 C56.16796875 -0.19140625 56.16796875 -0.19140625 58.3046875 -0.125 C68.09508007 4.78045875 75.23186716 15.86573998 79.16796875 25.80859375 C81.16796875 32.80859375 81.16796875 32.80859375 81.16796875 58.80859375 C52.12796875 58.80859375 23.08796875 58.80859375 -6.83203125 58.80859375 C-7.16203125 49.89859375 -7.49203125 40.98859375 -7.83203125 31.80859375 C-9.19426326 25.33358848 -9.19426326 25.33358848 -10.89453125 18.9453125 C-12.67501868 12.98809831 -12.67501868 12.98809831 -12.83203125 9.80859375 C-11.28515625 7.54296875 -11.28515625 7.54296875 -9.08203125 5.55859375 C-8.3653125 4.8934375 -7.64859375 4.22828125 -6.91015625 3.54296875 C-2.36847962 -0.2474531 -2.36847962 -0.2474531 0 0 Z " fill="#355D7B" transform="translate(344.83203125,425.19140625)"/>
<path d="M0 0 C2.69210636 1.11380282 5.22355141 2.43487912 7.79296875 3.80859375 C18.49344237 9.20411673 29.36860187 10.85247939 41.00146484 7.27368164 C45.50131314 5.78983085 49.39796802 4.36582531 53.30078125 1.63671875 C56.10546875 -0.12890625 56.10546875 -0.12890625 58.24609375 -0.0703125 C60.4176566 1.02915524 62.04984479 2.30158748 63.85546875 3.93359375 C64.4690625 4.48144531 65.08265625 5.02929688 65.71484375 5.59375 C66.17375 6.01527344 66.63265625 6.43679688 67.10546875 6.87109375 C66.26451187 11.62206663 64.73756268 16.00110798 63.140625 20.54296875 C58.97177394 33.94621818 59.6917594 43.62753673 59.10546875 58.87109375 C31.71546875 58.87109375 4.32546875 58.87109375 -23.89453125 58.87109375 C-23.89453125 35.26063111 -23.15674359 21.4988126 -8.078125 5.03515625 C-2.80495032 -0.19085229 -2.80495032 -0.19085229 0 0 Z " fill="#355D7B" transform="translate(109.89453125,425.12890625)"/>
<path d="M0 0 C31.02 0 62.04 0 94 0 C94 14.85 94 29.7 94 45 C62.98 45 31.96 45 0 45 C0 30.15 0 15.3 0 0 Z " fill="#E23955" transform="translate(209,20)"/>
<path d="M0 0 C6.73904037 5.21033556 10.95307712 12.44252549 12.359375 20.83984375 C12.79875496 30.74370565 9.91030473 39.61445314 3.25390625 47.03515625 C-2.9313441 52.60420684 -10.48454293 55.79516958 -18.80859375 56.16015625 C-28.31165674 55.64056432 -35.8256945 51.5786013 -42.18359375 44.59765625 C-48.45987056 36.34107836 -50.48990275 27.90816654 -49.18359375 17.59765625 C-46.05005873 7.9666442 -40.59728306 1.72093855 -31.93359375 -3.27734375 C-21.12746961 -7.6980309 -9.69920613 -6.22900715 0 0 Z " fill="#FCD7B1" transform="translate(392.18359375,363.40234375)"/>
<path d="M0 0 C7.16542579 4.60176719 11.37484385 10.94381427 14 19 C15.66255369 28.96408868 13.56305279 36.67400562 8 45 C2.74304469 52.27680328 -5.03882022 55.97594258 -13.796875 57.48046875 C-22.12307996 57.92565601 -29.66768001 55.17034013 -36.359375 50.2734375 C-43.59086495 43.66722676 -47.20333085 35.82119815 -47.6875 26.0625 C-47.31678563 16.9248917 -43.86920134 9.33667445 -37.25 3 C-26.23464198 -5.51660006 -12.23160098 -7.02844996 0 0 Z " fill="#FCD7B1" transform="translate(155,362)"/>
<path d="M0 0 C0.85728701 -0.00453111 1.71457401 -0.00906223 2.59783942 -0.01373065 C5.48134188 -0.02642926 8.3646568 -0.02475077 11.2481842 -0.02310181 C13.31107833 -0.0290836 15.37397021 -0.03588834 17.43685913 -0.04345703 C23.04835326 -0.0611586 28.65978645 -0.06581413 34.2713058 -0.0670886 C38.95095898 -0.06898504 43.63059788 -0.07633954 48.31024557 -0.08343279 C59.34750849 -0.09972975 70.38473877 -0.10460051 81.42201233 -0.10317993 C92.8197414 -0.10197779 104.21728133 -0.12309123 115.61496252 -0.15466726 C125.39080987 -0.18078827 135.16659528 -0.191549 144.94247729 -0.19026911 C150.78550996 -0.1897583 156.62837458 -0.19550739 162.4713726 -0.21662521 C167.96498352 -0.2359376 173.45826484 -0.23618012 178.95188713 -0.22159195 C180.97074869 -0.21949411 182.9896305 -0.22426236 185.00845718 -0.23631287 C187.75952933 -0.25167358 190.50945192 -0.24251842 193.26049805 -0.22705078 C194.06389946 -0.23733791 194.86730088 -0.24762503 195.6950478 -0.25822389 C199.26456423 -0.21371502 201.2926022 -0.03434821 204.18566227 2.14208031 C205.69374084 4.26742554 205.69374084 4.26742554 206.25624084 6.76742554 C205.69374084 9.26742554 205.69374084 9.26742554 203.69038486 11.39192963 C199.83163811 13.80698584 196.59602052 13.82481209 192.18493652 13.77536011 C190.90256807 13.78472005 190.90256807 13.78472005 189.59429318 13.79426908 C186.73059582 13.81021969 183.8677472 13.79758683 181.00404358 13.78500366 C178.95070397 13.79042382 176.89736825 13.79754587 174.84403992 13.8062439 C169.26770214 13.8244916 163.69166011 13.81740394 158.11531711 13.80472755 C152.2835451 13.79460882 146.45179862 13.80398998 140.62002563 13.81027222 C130.82724962 13.81755131 121.03459425 13.80795337 111.24183655 13.78890991 C99.91334701 13.76713467 88.58514536 13.77419633 77.25666279 13.79621553 C67.53596035 13.81435476 57.81534467 13.81693526 48.09463078 13.80646086 C42.28630004 13.8002186 36.47810472 13.79941058 30.66978264 13.81260681 C25.21058644 13.82414335 19.75176227 13.81617961 14.29260635 13.79302979 C12.28665472 13.78773122 10.2806719 13.78927598 8.27473259 13.79808044 C5.54124986 13.80897406 2.80896729 13.79534757 0.07556152 13.77536011 C-0.72258471 13.78428299 -1.52073094 13.79320588 -2.34306341 13.80239916 C-5.86345809 13.7522959 -7.93367565 13.53350257 -10.8340292 11.46224213 C-12.30625916 9.26742554 -12.30625916 9.26742554 -12.24375916 5.64242554 C-10.4361925 -0.86481442 -5.75089338 -0.02210896 0 0 Z " fill="#345B7A" transform="translate(159.30625915527344,277.7325744628906)"/>
<path d="M0 0 C25.08 0 50.16 0 76 0 C76 10.23 76 20.46 76 31 C50.92 31 25.84 31 0 31 C0 20.77 0 10.54 0 0 Z " fill="#C4EBF0" transform="translate(218,198)"/>
<path d="M0 0 C25.08 0 50.16 0 76 0 C76 10.23 76 20.46 76 31 C50.92 31 25.84 31 0 31 C0 20.77 0 10.54 0 0 Z " fill="#C4EBF1" transform="translate(218,118)"/>
<path d="M0 0 C21.12 0 42.24 0 64 0 C64 9.9 64 19.8 64 30 C42.88 30 21.76 30 0 30 C0 20.1 0 10.2 0 0 Z " fill="#C8EFF5" transform="translate(409,287)"/>
<path d="M0 0 C21.12 0 42.24 0 64 0 C64 9.9 64 19.8 64 30 C42.88 30 21.76 30 0 30 C0 20.1 0 10.2 0 0 Z " fill="#C8EFF5" transform="translate(39,287)"/>
<path d="M0 0 C21.12 0 42.24 0 64 0 C64 9.9 64 19.8 64 30 C42.88 30 21.76 30 0 30 C0 20.1 0 10.2 0 0 Z " fill="#C8EFF5" transform="translate(409,241)"/>
<path d="M0 0 C21.12 0 42.24 0 64 0 C64 9.9 64 19.8 64 30 C42.88 30 21.76 30 0 30 C0 20.1 0 10.2 0 0 Z " fill="#C8EFF5" transform="translate(39,241)"/>
<path d="M0 0 C21.12 0 42.24 0 64 0 C64 9.9 64 19.8 64 30 C56.10511165 30.08386426 48.21183429 30.16400082 40.3168869 30.20700073 C36.64050764 30.22813117 32.96449671 30.25637052 29.28833008 30.30175781 C25.74809428 30.34519373 22.20821583 30.36913209 18.66773415 30.37950897 C16.65847095 30.39050595 14.6493517 30.42173582 12.64030457 30.45318604 C10.80874565 30.45363922 10.80874565 30.45363922 8.94018555 30.45410156 C7.86318893 30.46298401 6.78619232 30.47186646 5.67655945 30.48101807 C3 30 3 30 0 26 C0 17.42 0 8.84 0 0 Z " fill="#C8F0F5" transform="translate(409,333)"/>
<path d="M0 0 C21.12 0 42.24 0 64 0 C64 26 64 26 61 30 C58.32344055 30.48101807 58.32344055 30.48101807 55.05981445 30.45410156 C53.83877518 30.45379944 52.6177359 30.45349731 51.35969543 30.45318604 C49.38147041 30.42221832 49.38147041 30.42221832 47.36328125 30.390625 C45.99994231 30.38316326 44.63659264 30.37747001 43.27323914 30.37347412 C39.68743196 30.35821209 36.1022744 30.31892672 32.51672363 30.2746582 C28.85694323 30.23371698 25.19705457 30.21524643 21.53710938 30.1953125 C14.35749947 30.154554 7.17967264 30.07626681 0 30 C0 20.1 0 10.2 0 0 Z " fill="#C8F0F5" transform="translate(39,333)"/>
<path d="M0 0 C21.12 0 42.24 0 64 0 C64 8.91 64 17.82 64 27 C42.88 27 21.76 27 0 27 C0 18.09 0 9.18 0 0 Z " fill="#C8EFF5" transform="translate(409,198)"/>
<path d="M0 0 C21.12 0 42.24 0 64 0 C64 8.91 64 17.82 64 27 C42.88 27 21.76 27 0 27 C0 18.09 0 9.18 0 0 Z " fill="#C8EFF5" transform="translate(39,198)"/>
<path d="M0 0 C17.82 0 35.64 0 54 0 C54 4.95 54 9.9 54 15 C55.10413853 20.18465049 56.33332716 24.99998147 58 30 C38.86 30 19.72 30 0 30 C0 20.1 0 10.2 0 0 Z " fill="#C8EFF5" transform="translate(39,379)"/>
<path d="M0 0 C17.82 0 35.64 0 54 0 C54 9.9 54 19.8 54 30 C34.86 30 15.72 30 -4 30 C-2.68 26.04 -1.36 22.08 0 18 C0 12.06 0 6.12 0 0 Z " fill="#C8EFF5" transform="translate(419,379)"/>
<path d="M0 0 C15.18 0 30.36 0 46 0 C46 9.24 46 18.48 46 28 C35.11 28 24.22 28 13 28 C11.68 24.04 10.36 20.08 9 16 C7.50834579 12.69836785 7.50834579 12.69836785 5.9375 10.0625 C5.45152344 9.20785156 4.96554687 8.35320312 4.46484375 7.47265625 C2.98590713 4.97621124 1.49287938 2.48813231 0 0 Z " fill="#F6D73D" transform="translate(427,425)"/>
<path d="M0 0 C15.18 0 30.36 0 46 0 C43.36 4.62 40.72 9.24 38 14 C35.92971233 18.77758693 34.25384438 22.98462248 33 28 C22.11 28 11.22 28 0 28 C0 18.76 0 9.52 0 0 Z " fill="#62C5F6" transform="translate(39,425)"/>
</svg>
